<?xml version="1.0" encoding="UTF-8" standalone="no"?>
<svg
   xmlns:dc="http://purl.org/dc/elements/1.1/"
   xmlns:cc="http://creativecommons.org/ns#"
   xmlns:rdf="http://www.w3.org/1999/02/22-rdf-syntax-ns#"
   xmlns:svg="http://www.w3.org/2000/svg"
   xmlns="http://www.w3.org/2000/svg"
   xmlns:sodipodi="http://sodipodi.sourceforge.net/DTD/sodipodi-0.dtd"
   xmlns:inkscape="http://www.inkscape.org/namespaces/inkscape"
   sodipodi:docname="рисунок.svg"
   inkscape:version="1.0 (4035a4f, 2020-05-01)"
   width="210mm"
   height="297mm"
   viewBox="0 0 210 297"
   version="1.1"
   id="svg8">
  <defs
     id="defs2">
    <marker
       inkscape:isstock="true"
       style="overflow:visible;"
       id="marker2396"
       refX="0.0"
       refY="0.0"
       orient="auto"
       inkscape:stockid="Arrow1Mend">
      <path
         transform="scale(0.4) rotate(180) translate(10,0)"
         style="fill-rule:evenodd;stroke:#000000;stroke-width:1pt;stroke-opacity:1;fill:#000000;fill-opacity:1"
         d="M 0.0,0.0 L 5.0,-5.0 L -12.5,0.0 L 5.0,5.0 L 0.0,0.0 z "
         id="path2394" />
    </marker>
    <marker
       inkscape:collect="always"
       inkscape:stockid="Arrow1Mend"
       orient="auto"
       refY="0.0"
       refX="0.0"
       id="marker2344"
       style="overflow:visible;"
       inkscape:isstock="true">
      <path
         id="path2342"
         d="M 0.0,0.0 L 5.0,-5.0 L -12.5,0.0 L 5.0,5.0 L 0.0,0.0 z "
         style="fill-rule:evenodd;stroke:#000000;stroke-width:1pt;stroke-opacity:1;fill:#000000;fill-opacity:1"
         transform="scale(0.4) rotate(180) translate(10,0)" />
    </marker>
    <marker
       inkscape:collect="always"
       inkscape:isstock="true"
       style="overflow:visible;"
       id="marker2146"
       refX="0.0"
       refY="0.0"
       orient="auto"
       inkscape:stockid="Arrow1Mend">
      <path
         transform="scale(0.4) rotate(180) translate(10,0)"
         style="fill-rule:evenodd;stroke:#000000;stroke-width:1pt;stroke-opacity:1;fill:#000000;fill-opacity:1"
         d="M 0.0,0.0 L 5.0,-5.0 L -12.5,0.0 L 5.0,5.0 L 0.0,0.0 z "
         id="path2144" />
    </marker>
    <marker
       inkscape:isstock="true"
       style="overflow:visible;"
       id="Arrow1Send"
       refX="0.0"
       refY="0.0"
       orient="auto"
       inkscape:stockid="Arrow1Send">
      <path
         transform="scale(0.2) rotate(180) translate(6,0)"
         style="fill-rule:evenodd;stroke:#000000;stroke-width:1pt;stroke-opacity:1;fill:#000000;fill-opacity:1"
         d="M 0.0,0.0 L 5.0,-5.0 L -12.5,0.0 L 5.0,5.0 L 0.0,0.0 z "
         id="path858" />
    </marker>
    <marker
       inkscape:collect="always"
       inkscape:stockid="Arrow1Mend"
       orient="auto"
       refY="0.0"
       refX="0.0"
       id="marker1898"
       style="overflow:visible;"
       inkscape:isstock="true">
      <path
         id="path1896"
         d="M 0.0,0.0 L 5.0,-5.0 L -12.5,0.0 L 5.0,5.0 L 0.0,0.0 z "
         style="fill-rule:evenodd;stroke:#000000;stroke-width:1pt;stroke-opacity:1;fill:#000000;fill-opacity:1"
         transform="scale(0.4) rotate(180) translate(10,0)" />
    </marker>
    <marker
       inkscape:stockid="Arrow1Mend"
       orient="auto"
       refY="0.0"
       refX="0.0"
       id="marker1802"
       style="overflow:visible;"
       inkscape:isstock="true">
      <path
         id="path1800"
         d="M 0.0,0.0 L 5.0,-5.0 L -12.5,0.0 L 5.0,5.0 L 0.0,0.0 z "
         style="fill-rule:evenodd;stroke:#000000;stroke-width:1pt;stroke-opacity:1;fill:#000000;fill-opacity:1"
         transform="scale(0.4) rotate(180) translate(10,0)" />
    </marker>
    <marker
       inkscape:stockid="Arrow1Mstart"
       orient="auto"
       refY="0.0"
       refX="0.0"
       id="marker1762"
       style="overflow:visible"
       inkscape:isstock="true">
      <path
         id="path1760"
         d="M 0.0,0.0 L 5.0,-5.0 L -12.5,0.0 L 5.0,5.0 L 0.0,0.0 z "
         style="fill-rule:evenodd;stroke:#000000;stroke-width:1pt;stroke-opacity:1;fill:#000000;fill-opacity:1"
         transform="scale(0.4) translate(10,0)" />
    </marker>
    <marker
       inkscape:collect="always"
       inkscape:isstock="true"
       style="overflow:visible;"
       id="Arrow1Mend"
       refX="0.0"
       refY="0.0"
       orient="auto"
       inkscape:stockid="Arrow1Mend">
      <path
         transform="scale(0.4) rotate(180) translate(10,0)"
         style="fill-rule:evenodd;stroke:#000000;stroke-width:1pt;stroke-opacity:1;fill:#000000;fill-opacity:1"
         d="M 0.0,0.0 L 5.0,-5.0 L -12.5,0.0 L 5.0,5.0 L 0.0,0.0 z "
         id="path852" />
    </marker>
    <marker
       inkscape:collect="always"
       inkscape:isstock="true"
       style="overflow:visible"
       id="Arrow1Mstart"
       refX="0.0"
       refY="0.0"
       orient="auto"
       inkscape:stockid="Arrow1Mstart">
      <path
         transform="scale(0.4) translate(10,0)"
         style="fill-rule:evenodd;stroke:#000000;stroke-width:1pt;stroke-opacity:1;fill:#000000;fill-opacity:1"
         d="M 0.0,0.0 L 5.0,-5.0 L -12.5,0.0 L 5.0,5.0 L 0.0,0.0 z "
         id="path849" />
    </marker>
    <defs
       id="id-81988bda-179b-46bb-b80f-bcb009699128">
      <g
         id="id-ec785838-6409-443b-aeff-eb1891fcc9db">
        <symbol
           overflow="visible"
           id="id-0805aa27-6ca7-4055-b769-658823a71984">
          <path
             style="stroke:none"
             d=""
             id="id-90c1759c-d47a-4dcf-a710-1dcc01584541" />
        </symbol>
        <symbol
           overflow="visible"
           id="id-71dfaee7-398d-4794-9013-82d46d431fd6">
          <path
             style="stroke:none"
             d="m 6.296875,-4.5 c 0,-0.609375 -0.703125,-0.78125 -1.109375,-0.78125 -0.6875,0 -1.109375,0.625 -1.25,0.90625 -0.296875,-0.78125 -0.953125,-0.90625 -1.296875,-0.90625 -1.234375,0 -1.921875,1.546875 -1.921875,1.84375 0,0.109375 0.140625,0.109375 0.140625,0.109375 0.09375,0 0.125,-0.015625 0.15625,-0.125 0.40625,-1.265625 1.203125,-1.5625 1.609375,-1.5625 0.21875,0 0.640625,0.109375 0.640625,0.796875 0,0.375 -0.203125,1.171875 -0.640625,2.84375 -0.203125,0.734375 -0.609375,1.25 -1.140625,1.25 -0.078125,0 -0.34375,0 -0.59375,-0.15625 0.296875,-0.0625 0.5625,-0.3125 0.5625,-0.65625 C 1.453125,-1.25 1.1875,-1.34375 1,-1.34375 c -0.359375,0 -0.65625,0.296875 -0.65625,0.6875 0,0.546875 0.59375,0.78125 1.125,0.78125 0.796875,0 1.21875,-0.828125 1.25,-0.90625 C 2.875,-0.328125 3.296875,0.125 4.015625,0.125 c 1.234375,0 1.90625,-1.53125 1.90625,-1.828125 0,-0.125 -0.09375,-0.125 -0.140625,-0.125 -0.109375,0 -0.125,0.046875 -0.15625,0.125 C 5.234375,-0.421875 4.421875,-0.125 4.046875,-0.125 3.578125,-0.125 3.375,-0.515625 3.375,-0.921875 3.375,-1.1875 3.453125,-1.453125 3.578125,-1.96875 L 4,-3.609375 c 0.0625,-0.3125 0.34375,-1.40625 1.171875,-1.40625 0.0625,0 0.34375,0 0.59375,0.15625 C 5.4375,-4.8125 5.203125,-4.5 5.203125,-4.21875 c 0,0.1875 0.125,0.421875 0.453125,0.421875 0.265625,0 0.640625,-0.21875 0.640625,-0.703125 z m 0,0"
             id="id-c7aaef44-55bf-4c31-a486-73a4f75b3ab3" />
        </symbol>
        <symbol
           overflow="visible"
           id="id-9390e45f-f5b4-48c0-9537-2f149682e0e2">
          <path
             style="stroke:none"
             d="m 5.578125,-5.15625 c 0,-0.125 -0.125,-0.125 -0.125,-0.125 -0.09375,0 -0.125,0.015625 -0.1875,0.125 C 4.90625,-4.578125 4.65625,-4.390625 4.375,-4.390625 c -0.28125,0 -0.4375,-0.171875 -0.609375,-0.375 C 3.53125,-5.046875 3.328125,-5.28125 2.9375,-5.28125 c -0.890625,0 -1.4375,1.109375 -1.4375,1.359375 0,0.0625 0.03125,0.125 0.140625,0.125 0.109375,0 0.125,-0.046875 0.15625,-0.125 0.21875,-0.546875 0.921875,-0.5625 1.015625,-0.5625 0.25,0 0.46875,0.078125 0.75,0.1875 C 4.046875,-4.125 4.171875,-4.125 4.484375,-4.125 c -0.4375,0.515625 -1.4375,1.375 -1.65625,1.5625 L 1.75,-1.546875 C 0.9375,-0.75 0.515625,-0.078125 0.515625,0.015625 0.515625,0.125 0.65625,0.125 0.65625,0.125 c 0.09375,0 0.125,-0.015625 0.1875,-0.15625 0.28125,-0.40625 0.640625,-0.734375 1.015625,-0.734375 0.28125,0 0.40625,0.109375 0.703125,0.453125 0.203125,0.25 0.40625,0.4375 0.765625,0.4375 1.171875,0 1.875,-1.515625 1.875,-1.828125 0,-0.0625 -0.046875,-0.125 -0.140625,-0.125 -0.109375,0 -0.140625,0.078125 -0.171875,0.15625 -0.28125,0.78125 -1.046875,1 -1.4375,1 C 3.21875,-0.671875 3,-0.734375 2.75,-0.828125 2.34375,-0.984375 2.15625,-1.03125 1.90625,-1.03125 c 0,0 -0.203125,0 -0.3125,0.046875 0.640625,-0.703125 0.984375,-1 1.421875,-1.375 0,0 0.734375,-0.640625 1.171875,-1.078125 1.125,-1.109375 1.390625,-1.671875 1.390625,-1.71875 z m 0,0"
             id="id-5f484ac1-66e0-487d-9248-8a859a68f8ab" />
        </symbol>
        <symbol
           overflow="visible"
           id="id-e0d9b3fe-fcd6-4b3c-aaef-a86bcff6f015">
          <path
             style="stroke:none"
             d="m 5.4375,-5.96875 c 0,-0.796875 -0.21875,-2.453125 -1.4375,-2.453125 -1.65625,0 -3.5,3.359375 -3.5,6.109375 0,1.125 0.34375,2.4375 1.4375,2.4375 1.6875,0 3.5,-3.421875 3.5,-6.09375 z m -0.78125,-0.75 c 0,0.59375 -0.109375,1.203125 -0.390625,2.375 h -2.5 C 1.96875,-5.109375 2.21875,-6.0625 2.6875,-6.90625 3.015625,-7.5 3.453125,-8.15625 4,-8.15625 c 0.578125,0 0.65625,0.75 0.65625,1.4375 z m -0.5,2.765625 c -0.125,0.546875 -0.375,1.5625 -0.828125,2.421875 -0.421875,0.8125 -0.875,1.40625 -1.390625,1.40625 -0.390625,0 -0.640625,-0.359375 -0.640625,-1.46875 0,-0.5 0.0625,-1.1875 0.375,-2.359375 z m 0,0"
             id="id-a959b9e5-d9fb-48bd-b4ae-e1fb54bbf44f" />
        </symbol>
        <symbol
           overflow="visible"
           id="id-46594b3c-3b72-464e-a440-ee5477202e1f">
          <path
             style="stroke:none"
             d="m 6.828125,-1.703125 c 0,-0.125 -0.109375,-0.125 -0.140625,-0.125 -0.125,0 -0.125,0.03125 -0.1875,0.21875 C 6.265625,-0.796875 5.875,-0.125 5.28125,-0.125 5.078125,-0.125 5,-0.25 5,-0.53125 5,-0.828125 5.109375,-1.109375 5.21875,-1.375 5.4375,-2.015625 5.9375,-3.328125 5.9375,-4 c 0,-0.8125 -0.515625,-1.28125 -1.375,-1.28125 -1.078125,0 -1.65625,0.765625 -1.859375,1.03125 -0.0625,-0.65625 -0.546875,-1.03125 -1.09375,-1.03125 -0.5625,0 -0.78125,0.46875 -0.90625,0.671875 -0.1875,0.40625 -0.359375,1.125 -0.359375,1.171875 0,0.109375 0.140625,0.109375 0.140625,0.109375 0.125,0 0.140625,0 0.203125,-0.265625 0.203125,-0.859375 0.453125,-1.421875 0.875,-1.421875 0.25,0 0.375,0.15625 0.375,0.546875 0,0.25 -0.03125,0.375 -0.1875,1 L 1.046875,-0.703125 C 1.015625,-0.53125 0.9375,-0.25 0.9375,-0.1875 c 0,0.21875 0.171875,0.3125 0.359375,0.3125 0.140625,0 0.359375,-0.09375 0.4375,-0.328125 C 1.75,-0.234375 1.890625,-0.78125 1.953125,-1.09375 l 0.265625,-1.0625 c 0.078125,-0.265625 0.140625,-0.53125 0.203125,-0.8125 l 0.15625,-0.59375 c 0.1875,-0.375 0.8125,-1.453125 1.953125,-1.453125 0.53125,0 0.640625,0.4375 0.640625,0.828125 0,0.75 -0.578125,2.28125 -0.765625,2.78125 -0.109375,0.28125 -0.125,0.421875 -0.125,0.5625 0,0.5625 0.421875,0.96875 0.984375,0.96875 1.125,0 1.5625,-1.734375 1.5625,-1.828125 z m 0,0"
             id="id-528f8190-1fcc-408c-a919-bd59b2d8a222" />
        </symbol>
        <symbol
           overflow="visible"
           id="id-b56484ac-4b97-4774-92b0-b939c44aa245">
          <path
             style="stroke:none"
             d="M 5.359375,-2.078125 H 5.0625 c -0.046875,0.359375 -0.140625,0.890625 -0.25,1.0625 -0.09375,0.09375 -0.875,0.09375 -1.140625,0.09375 H 1.515625 L 2.78125,-2.15625 c 1.875,-1.640625 2.578125,-2.296875 2.578125,-3.484375 0,-1.359375 -1.0625,-2.3125 -2.53125,-2.3125 -1.34375,0 -2.234375,1.09375 -2.234375,2.15625 0,0.671875 0.59375,0.671875 0.640625,0.671875 0.203125,0 0.625,-0.140625 0.625,-0.640625 0,-0.3125 -0.21875,-0.625 -0.640625,-0.625 -0.09375,0 -0.125,0 -0.15625,0.015625 0.28125,-0.765625 0.921875,-1.21875 1.609375,-1.21875 1.09375,0 1.609375,0.96875 1.609375,1.953125 0,0.953125 -0.59375,1.90625 -1.25,2.640625 L 0.734375,-0.4375 C 0.59375,-0.3125 0.59375,-0.28125 0.59375,0 h 4.4375 z m 0,0"
             id="id-eb97b47e-b3ec-4e67-b763-d5b8b3558d15" />
        </symbol>
        <symbol
           overflow="visible"
           id="id-82a6ff5f-d7e0-4851-a489-6d30cca903b9">
          <path
             style="stroke:none"
             d="m 7.21875,-4.453125 c 0,-0.296875 -0.0625,-0.5625 -0.234375,-0.71875 C 6.90625,-5.25 6.8125,-5.28125 6.703125,-5.28125 c -0.140625,0 -0.296875,0.0625 -0.421875,0.1875 -0.09375,0.125 -0.15625,0.25 -0.15625,0.390625 0,0.109375 0.046875,0.203125 0.125,0.296875 0.296875,0.265625 0.453125,0.625 0.453125,1.046875 0,0.140625 -0.015625,0.296875 -0.046875,0.4375 -0.265625,1.09375 -0.96875,2.1875 -1.90625,2.1875 -0.671875,0 -1.0625,-0.453125 -1.171875,-1.078125 C 3.734375,-2.140625 3.84375,-2.5 3.9375,-2.859375 c 0.015625,-0.109375 0.046875,-0.21875 0.046875,-0.3125 0,-0.171875 -0.0625,-0.3125 -0.234375,-0.3125 -0.21875,0 -0.34375,0.3125 -0.40625,0.5625 -0.09375,0.375 -0.140625,0.734375 -0.15625,1.078125 -0.390625,0.65625 -0.96875,1.109375 -1.625,1.109375 -0.71875,0 -1.03125,-0.59375 -1.03125,-1.34375 0,-0.234375 0.03125,-0.515625 0.09375,-0.78125 C 0.796875,-3.578125 1.234375,-4.25 1.6875,-4.875 1.71875,-4.921875 1.75,-4.984375 1.75,-5.03125 1.75,-5.109375 1.703125,-5.15625 1.640625,-5.203125 1.609375,-5.21875 1.5625,-5.21875 1.53125,-5.21875 1.453125,-5.21875 1.375,-5.1875 1.3125,-5.109375 0.828125,-4.4375 0.53125,-3.671875 0.328125,-2.921875 0.21875,-2.46875 0.15625,-2 0.15625,-1.578125 c 0,0.96875 0.34375,1.703125 1.25,1.703125 0.75,0 1.375,-0.515625 1.828125,-1.265625 0.140625,0.75 0.5625,1.265625 1.359375,1.265625 1.234375,0 2,-1.53125 2.34375,-2.984375 C 7.078125,-3.375 7.21875,-3.96875 7.21875,-4.453125 Z m 0,0"
             id="id-0831ecf0-cd29-4454-bd9b-077ce3c4b164" />
        </symbol>
        <symbol
           overflow="visible"
           id="id-b1fa579c-3a0f-4547-b6f8-cc90c1055699">
          <path
             style="stroke:none"
             d=""
             id="id-d6db57ab-5efb-4f95-82fd-d749dea7bec2" />
        </symbol>
        <symbol
           overflow="visible"
           id="id-626c1daa-bb43-4e50-9e94-eb6cf1c3b406">
          <path
             style="stroke:none"
             d="m 4.109375,-2.546875 c 0,-0.875 -0.09375,-1.5 -0.46875,-2.0625 -0.25,-0.359375 -0.734375,-0.6875 -1.375,-0.6875 -1.84375,0 -1.84375,2.1875 -1.84375,2.75 0,0.578125 0,2.703125 1.84375,2.703125 1.84375,0 1.84375,-2.125 1.84375,-2.703125 z m -0.71875,-0.09375 c 0,0.578125 0,1.171875 -0.109375,1.671875 -0.15625,0.734375 -0.703125,0.90625 -1.015625,0.90625 -0.375,0 -0.859375,-0.21875 -1.015625,-0.875 -0.109375,-0.46875 -0.109375,-1.125 -0.109375,-1.703125 0,-0.59375 0,-1.1875 0.125,-1.625 0.15625,-0.640625 0.671875,-0.796875 1,-0.796875 0.421875,0 0.84375,0.25 0.984375,0.71875 0.125,0.4375 0.140625,1 0.140625,1.703125 z m 0,0"
             id="id-90a47006-bb91-4643-bb2d-826912ed68f6" />
        </symbol>
        <symbol
           overflow="visible"
           id="id-37c6b8e1-3f7b-4e10-bf71-c711bdf1ea77">
          <path
             style="stroke:none"
             d="M 4.234375,-2.125 C 4.234375,-3 3.5625,-3.515625 2.78125,-3.515625 1.609375,-3.515625 0.5,-2.40625 0.5,-1.3125 c 0,0.796875 0.578125,1.390625 1.4375,1.390625 1.140625,0 2.296875,-1.046875 2.296875,-2.203125 z m -0.65625,-0.28125 c 0,0.1875 -0.09375,0.984375 -0.453125,1.53125 -0.296875,0.484375 -0.78125,0.734375 -1.171875,0.734375 -0.40625,0 -0.796875,-0.25 -0.796875,-0.890625 0,-0.328125 0.15625,-1.109375 0.46875,-1.5625 0.328125,-0.484375 0.796875,-0.703125 1.15625,-0.703125 0.4375,0 0.796875,0.296875 0.796875,0.890625 z m 0,0"
             id="id-c72b2080-f50c-42cb-ba18-da5836b2f76e" />
        </symbol>
        <symbol
           overflow="visible"
           id="id-f0baa25c-180b-434d-9663-11e1df94ae2d">
          <path
             style="stroke:none"
             d="m 3.9375,-0.828125 c 0,-0.046875 -0.0625,-0.125 -0.125,-0.125 -0.046875,0 -0.0625,0.015625 -0.125,0.078125 -0.625,0.734375 -1.5625,0.734375 -1.703125,0.734375 -0.484375,0 -0.796875,-0.328125 -0.796875,-0.96875 0,-0.109375 0,-0.265625 0.09375,-0.703125 h 0.5 c 0.234375,0 0.859375,-0.015625 1.28125,-0.171875 0.59375,-0.203125 0.703125,-0.59375 0.703125,-0.828125 0,-0.4375 -0.4375,-0.703125 -0.984375,-0.703125 -0.953125,0 -2.25,0.734375 -2.25,2.09375 0,0.8125 0.5,1.5 1.4375,1.5 1.34375,0 1.96875,-0.78125 1.96875,-0.90625 z M 3.421875,-2.8125 c 0,0.765625 -1.34375,0.765625 -1.6875,0.765625 H 1.34375 c 0.328125,-1.15625 1.21875,-1.25 1.4375,-1.25 0.34375,0 0.640625,0.1875 0.640625,0.484375 z m 0,0"
             id="id-5387946c-5ff4-44b2-851d-bdaf54f9e2c1" />
        </symbol>
        <symbol
           overflow="visible"
           id="id-79f1aad5-2a37-4ab9-adda-f1ef463aad10">
          <path
             style="stroke:none"
             d=""
             id="id-75878fd4-1b83-4706-a4ec-ea208452e6cc" />
        </symbol>
        <symbol
           overflow="visible"
           id="id-9c64265c-fba4-4432-84da-e82f613cdd96">
          <path
             style="stroke:none"
             d="M 4.109375,-7.609375 C 4.046875,-7.640625 3.984375,-7.6875 3.921875,-7.75 3.859375,-7.8125 3.8125,-7.859375 3.78125,-7.9375 2.3125,-6.46875 1.4375,-4.90625 1.4375,-3.375 v 0.78125 c 0,1.515625 0.875,3.078125 2.34375,4.546875 0.03125,-0.0625 0.078125,-0.125 0.140625,-0.1875 0.0625,-0.0625 0.125,-0.109375 0.1875,-0.140625 C 2.78125,0.28125 2.15625,-1.203125 2.15625,-2.59375 V -3.375 c 0,-1.390625 0.625,-2.890625 1.953125,-4.234375 z m 0,0"
             id="id-519291a9-8950-4ed4-be11-75bfc4e5e2c5" />
        </symbol>
        <symbol
           overflow="visible"
           id="id-39e92e4d-57ab-4099-b1c6-2ae2c46de9d9">
          <path
             style="stroke:none"
             d="M 3.640625,-2.59375 V -3.375 c 0,-1.53125 -0.875,-3.09375 -2.34375,-4.5625 -0.046875,0.078125 -0.09375,0.125 -0.15625,0.1875 -0.046875,0.0625 -0.109375,0.109375 -0.1875,0.140625 1.328125,1.34375 1.96875,2.84375 1.96875,4.234375 v 0.78125 c 0,1.390625 -0.640625,2.875 -1.96875,4.21875 0.078125,0.03125 0.140625,0.078125 0.1875,0.140625 0.0625,0.0625 0.109375,0.125 0.15625,0.1875 1.46875,-1.46875 2.34375,-3.03125 2.34375,-4.546875 z m 0,0"
             id="id-dc93a4ab-78c9-4cbd-83c7-e6296f35c2f7" />
        </symbol>
      </g>
    </defs>
  </defs>
  <sodipodi:namedview
     inkscape:snap-global="false"
     inkscape:window-maximized="0"
     inkscape:window-y="0"
     inkscape:window-x="0"
     inkscape:window-height="1050"
     inkscape:window-width="1680"
     inkscape:object-paths="true"
     inkscape:snap-intersection-paths="true"
     inkscape:snap-grids="false"
     showgrid="true"
     inkscape:document-rotation="0"
     inkscape:current-layer="layer2"
     inkscape:document-units="mm"
     inkscape:cy="188.11501"
     inkscape:cx="519.53795"
     inkscape:zoom="1.801968"
     inkscape:pageshadow="2"
     inkscape:pageopacity="0.0"
     borderopacity="1.0"
     bordercolor="#666666"
     pagecolor="#ffffff"
     id="base">
    <inkscape:grid
       spacingy="2"
       spacingx="2"
       id="grid833"
       type="xygrid" />
  </sodipodi:namedview>
  <metadata
     id="metadata5">
    <rdf:RDF>
      <cc:Work
         rdf:about="">
        <dc:format>image/svg+xml</dc:format>
        <dc:type
           rdf:resource="http://purl.org/dc/dcmitype/StillImage" />
        <dc:title></dc:title>
      </cc:Work>
    </rdf:RDF>
  </metadata>
  <g
     id="layer1"
     inkscape:groupmode="layer"
     inkscape:label="Слой 1">
    <circle
       r="35.5"
       cy="55.000015"
       cx="140"
       id="path835"
       style="fill:none;stroke:#000000;stroke-width:0.25;stroke-linecap:round;stroke-linejoin:round;stroke-miterlimit:4;stroke-dasharray:none" />
    <ellipse
       cx="140"
       cy="55.000015"
       rx="15"
       ry="35.498917"
       id="path837"
       style="fill:none;stroke:#000000;stroke-width:0.25;stroke-linecap:round;stroke-linejoin:round;stroke-miterlimit:4;stroke-dasharray:none" />
    <path
       id="path839"
       d="M 95,54.97918 185,55"
       style="fill:none;stroke:#000000;stroke-width:0.243279;stroke-linecap:round;stroke-linejoin:round;stroke-miterlimit:4;stroke-dasharray:none;marker-end:url(#Arrow1Mend)" />
    <path
       id="path841"
       d="M 140,10.000014 V 100.00001"
       style="fill:none;stroke:#000000;stroke-width:0.25;stroke-linecap:round;stroke-linejoin:round;stroke-miterlimit:4;stroke-dasharray:none;marker-start:url(#Arrow1Mstart)" />
    <circle
       r="20"
       cy="55"
       cx="140"
       id="path1169"
       style="fill:none;stroke:#000000;stroke-width:0.25;stroke-linecap:round;stroke-linejoin:round;stroke-miterlimit:4;stroke-dasharray:none" />
    <ellipse
       ry="20"
       rx="7.5"
       cy="55"
       cx="140"
       id="path1171"
       style="fill:none;stroke:#000000;stroke-width:0.25;stroke-linecap:round;stroke-linejoin:round;stroke-miterlimit:4;stroke-dasharray:none;fill-opacity:1" />
  </g>
  <g
     inkscape:label="Слой 2"
     id="layer2"
     inkscape:groupmode="layer">
    <g
       id="g1218"
       transform="matrix(0.35277801,0,0,0.35277801,187.71999,55.909117)"
       style="fill:#000000;fill-opacity:1">
      <path
         style="stroke:none"
         d="m 6.296875,-4.5 c 0,-0.609375 -0.703125,-0.78125 -1.109375,-0.78125 -0.6875,0 -1.109375,0.625 -1.25,0.90625 -0.296875,-0.78125 -0.953125,-0.90625 -1.296875,-0.90625 -1.234375,0 -1.921875,1.546875 -1.921875,1.84375 0,0.109375 0.140625,0.109375 0.140625,0.109375 0.09375,0 0.125,-0.015625 0.15625,-0.125 0.40625,-1.265625 1.203125,-1.5625 1.609375,-1.5625 0.21875,0 0.640625,0.109375 0.640625,0.796875 0,0.375 -0.203125,1.171875 -0.640625,2.84375 -0.203125,0.734375 -0.609375,1.25 -1.140625,1.25 -0.078125,0 -0.34375,0 -0.59375,-0.15625 0.296875,-0.0625 0.5625,-0.3125 0.5625,-0.65625 C 1.453125,-1.25 1.1875,-1.34375 1,-1.34375 c -0.359375,0 -0.65625,0.296875 -0.65625,0.6875 0,0.546875 0.59375,0.78125 1.125,0.78125 0.796875,0 1.21875,-0.828125 1.25,-0.90625 C 2.875,-0.328125 3.296875,0.125 4.015625,0.125 c 1.234375,0 1.90625,-1.53125 1.90625,-1.828125 0,-0.125 -0.09375,-0.125 -0.140625,-0.125 -0.109375,0 -0.125,0.046875 -0.15625,0.125 C 5.234375,-0.421875 4.421875,-0.125 4.046875,-0.125 3.578125,-0.125 3.375,-0.515625 3.375,-0.921875 3.375,-1.1875 3.453125,-1.453125 3.578125,-1.96875 L 4,-3.609375 c 0.0625,-0.3125 0.34375,-1.40625 1.171875,-1.40625 0.0625,0 0.34375,0 0.59375,0.15625 C 5.4375,-4.8125 5.203125,-4.5 5.203125,-4.21875 c 0,0.1875 0.125,0.421875 0.453125,0.421875 0.265625,0 0.640625,-0.21875 0.640625,-0.703125 z m 0,0"
         id="id-b14fb687-643e-4d2e-93d1-4ce9e7ef7b76" />
    </g>
    <g
       id="g1221"
       transform="matrix(0.35277801,0,0,0.35277801,138.92513,7.9365719)"
       style="fill:#000000;fill-opacity:1">
      <path
         style="stroke:none"
         d="m 5.578125,-5.15625 c 0,-0.125 -0.125,-0.125 -0.125,-0.125 -0.09375,0 -0.125,0.015625 -0.1875,0.125 C 4.90625,-4.578125 4.65625,-4.390625 4.375,-4.390625 c -0.28125,0 -0.4375,-0.171875 -0.609375,-0.375 C 3.53125,-5.046875 3.328125,-5.28125 2.9375,-5.28125 c -0.890625,0 -1.4375,1.109375 -1.4375,1.359375 0,0.0625 0.03125,0.125 0.140625,0.125 0.109375,0 0.125,-0.046875 0.15625,-0.125 0.21875,-0.546875 0.921875,-0.5625 1.015625,-0.5625 0.25,0 0.46875,0.078125 0.75,0.1875 C 4.046875,-4.125 4.171875,-4.125 4.484375,-4.125 c -0.4375,0.515625 -1.4375,1.375 -1.65625,1.5625 L 1.75,-1.546875 C 0.9375,-0.75 0.515625,-0.078125 0.515625,0.015625 0.515625,0.125 0.65625,0.125 0.65625,0.125 c 0.09375,0 0.125,-0.015625 0.1875,-0.15625 0.28125,-0.40625 0.640625,-0.734375 1.015625,-0.734375 0.28125,0 0.40625,0.109375 0.703125,0.453125 0.203125,0.25 0.40625,0.4375 0.765625,0.4375 1.171875,0 1.875,-1.515625 1.875,-1.828125 0,-0.0625 -0.046875,-0.125 -0.140625,-0.125 -0.109375,0 -0.140625,0.078125 -0.171875,0.15625 -0.28125,0.78125 -1.046875,1 -1.4375,1 C 3.21875,-0.671875 3,-0.734375 2.75,-0.828125 2.34375,-0.984375 2.15625,-1.03125 1.90625,-1.03125 c 0,0 -0.203125,0 -0.3125,0.046875 0.640625,-0.703125 0.984375,-1 1.421875,-1.375 0,0 0.734375,-0.640625 1.171875,-1.078125 1.125,-1.109375 1.390625,-1.671875 1.390625,-1.71875 z m 0,0"
         id="id-22e90a9b-abf2-4bf3-8eb4-3a2be78cea70" />
    </g>
    <g
       transform="translate(62.995038,-95.528583)"
       id="g1754">
      <g
         transform="matrix(0.35277801,0,0,0.35277801,90.998044,111.62609)"
         id="g1225"
         style="fill:#000000;fill-opacity:1">
        <path
           id="id-7cc5917b-dfa2-4f67-ae38-7e2a46968f27"
           d="m 5.4375,-5.96875 c 0,-0.796875 -0.21875,-2.453125 -1.4375,-2.453125 -1.65625,0 -3.5,3.359375 -3.5,6.109375 0,1.125 0.34375,2.4375 1.4375,2.4375 1.6875,0 3.5,-3.421875 3.5,-6.09375 z m -0.78125,-0.75 c 0,0.59375 -0.109375,1.203125 -0.390625,2.375 h -2.5 C 1.96875,-5.109375 2.21875,-6.0625 2.6875,-6.90625 3.015625,-7.5 3.453125,-8.15625 4,-8.15625 c 0.578125,0 0.65625,0.75 0.65625,1.4375 z m -0.5,2.765625 c -0.125,0.546875 -0.375,1.5625 -0.828125,2.421875 -0.421875,0.8125 -0.875,1.40625 -1.390625,1.40625 -0.390625,0 -0.640625,-0.359375 -0.640625,-1.46875 0,-0.5 0.0625,-1.1875 0.375,-2.359375 z m 0,0"
           style="stroke:none" />
      </g>
      <g
         style="fill:#000000;fill-opacity:1"
         id="id-9eb60ddc-744d-4ed8-9f9b-9fc91d8c1224"
         transform="matrix(0.35277801,0,0,0.35277801,34.035684,64.083958)">
        <g
           id="g1229"
           transform="translate(167.075,137.718)">
          <path
             style="stroke:none"
             d="m 4.109375,-2.546875 c 0,-0.875 -0.09375,-1.5 -0.46875,-2.0625 -0.25,-0.359375 -0.734375,-0.6875 -1.375,-0.6875 -1.84375,0 -1.84375,2.1875 -1.84375,2.75 0,0.578125 0,2.703125 1.84375,2.703125 1.84375,0 1.84375,-2.125 1.84375,-2.703125 z m -0.71875,-0.09375 c 0,0.578125 0,1.171875 -0.109375,1.671875 -0.15625,0.734375 -0.703125,0.90625 -1.015625,0.90625 -0.375,0 -0.859375,-0.21875 -1.015625,-0.875 -0.109375,-0.46875 -0.109375,-1.125 -0.109375,-1.703125 0,-0.59375 0,-1.1875 0.125,-1.625 0.15625,-0.640625 0.671875,-0.796875 1,-0.796875 0.421875,0 0.84375,0.25 0.984375,0.71875 0.125,0.4375 0.140625,1 0.140625,1.703125 z m 0,0"
             id="id-87f60f89-3aa1-4df1-a900-8d82e8272719" />
        </g>
      </g>
    </g>
    <g
       transform="translate(11.26005,-88.437327)"
       id="g2221">
      <g
         style="fill:#000000;fill-opacity:1"
         id="id-7ae0d267-ad50-4a97-a43b-5f4a830e4984"
         transform="matrix(0.35277801,0,0,0.35277801,34.035684,64.083958)">
        <g
           id="g1233"
           transform="translate(172.109,134.765)">
          <path
             style="stroke:none"
             d="m 6.828125,-1.703125 c 0,-0.125 -0.109375,-0.125 -0.140625,-0.125 -0.125,0 -0.125,0.03125 -0.1875,0.21875 C 6.265625,-0.796875 5.875,-0.125 5.28125,-0.125 5.078125,-0.125 5,-0.25 5,-0.53125 5,-0.828125 5.109375,-1.109375 5.21875,-1.375 5.4375,-2.015625 5.9375,-3.328125 5.9375,-4 c 0,-0.8125 -0.515625,-1.28125 -1.375,-1.28125 -1.078125,0 -1.65625,0.765625 -1.859375,1.03125 -0.0625,-0.65625 -0.546875,-1.03125 -1.09375,-1.03125 -0.5625,0 -0.78125,0.46875 -0.90625,0.671875 -0.1875,0.40625 -0.359375,1.125 -0.359375,1.171875 0,0.109375 0.140625,0.109375 0.140625,0.109375 0.125,0 0.140625,0 0.203125,-0.265625 0.203125,-0.859375 0.453125,-1.421875 0.875,-1.421875 0.25,0 0.375,0.15625 0.375,0.546875 0,0.25 -0.03125,0.375 -0.1875,1 L 1.046875,-0.703125 C 1.015625,-0.53125 0.9375,-0.25 0.9375,-0.1875 c 0,0.21875 0.171875,0.3125 0.359375,0.3125 0.140625,0 0.359375,-0.09375 0.4375,-0.328125 C 1.75,-0.234375 1.890625,-0.78125 1.953125,-1.09375 l 0.265625,-1.0625 c 0.078125,-0.265625 0.140625,-0.53125 0.203125,-0.8125 l 0.15625,-0.59375 c 0.1875,-0.375 0.8125,-1.453125 1.953125,-1.453125 0.53125,0 0.640625,0.4375 0.640625,0.828125 0,0.75 -0.578125,2.28125 -0.765625,2.78125 -0.109375,0.28125 -0.125,0.421875 -0.125,0.5625 0,0.5625 0.421875,0.96875 0.984375,0.96875 1.125,0 1.5625,-1.734375 1.5625,-1.828125 z m 0,0"
             id="id-75f122b5-9088-4848-baa4-167676244377" />
        </g>
      </g>
      <g
         style="fill:#000000;fill-opacity:1"
         id="id-c08ee11e-0286-4482-b6dd-2daeb5cfddb1"
         transform="matrix(0.35277801,0,0,0.35277801,34.035684,64.083958)">
        <g
           id="g1237"
           transform="translate(179.282,137.718)">
          <path
             style="stroke:none"
             d="M 4.234375,-2.125 C 4.234375,-3 3.5625,-3.515625 2.78125,-3.515625 1.609375,-3.515625 0.5,-2.40625 0.5,-1.3125 c 0,0.796875 0.578125,1.390625 1.4375,1.390625 1.140625,0 2.296875,-1.046875 2.296875,-2.203125 z m -0.65625,-0.28125 c 0,0.1875 -0.09375,0.984375 -0.453125,1.53125 -0.296875,0.484375 -0.78125,0.734375 -1.171875,0.734375 -0.40625,0 -0.796875,-0.25 -0.796875,-0.890625 0,-0.328125 0.15625,-1.109375 0.46875,-1.5625 0.328125,-0.484375 0.796875,-0.703125 1.15625,-0.703125 0.4375,0 0.796875,0.296875 0.796875,0.890625 z m 0,0"
             id="id-30b8ea39-9d41-4b43-b6a0-d02e99f48d8c" />
        </g>
      </g>
      <g
         style="fill:#000000;fill-opacity:1"
         id="id-3c353abb-3b86-4d3f-b5e4-2d73b47fd9d1"
         transform="matrix(0.35277801,0,0,0.35277801,34.035684,64.083958)">
        <g
           id="g1241"
           transform="translate(184.275,134.765)">
          <path
             style="stroke:none"
             d="M 4.109375,-7.609375 C 4.046875,-7.640625 3.984375,-7.6875 3.921875,-7.75 3.859375,-7.8125 3.8125,-7.859375 3.78125,-7.9375 2.3125,-6.46875 1.4375,-4.90625 1.4375,-3.375 v 0.78125 c 0,1.515625 0.875,3.078125 2.34375,4.546875 0.03125,-0.0625 0.078125,-0.125 0.140625,-0.1875 0.0625,-0.0625 0.125,-0.109375 0.1875,-0.140625 C 2.78125,0.28125 2.15625,-1.203125 2.15625,-2.59375 V -3.375 c 0,-1.390625 0.625,-2.890625 1.953125,-4.234375 z m 0,0"
             id="id-4f1f8ead-e3d6-4026-a426-89ab301db00e" />
        </g>
      </g>
      <g
         style="fill:#000000;fill-opacity:1"
         id="id-990cb0c6-8758-45a6-a5d8-42964c7d0c0b"
         transform="matrix(0.35277801,0,0,0.35277801,34.035684,64.083958)">
        <g
           id="g1245"
           transform="translate(189.344,134.765)">
          <path
             style="stroke:none"
             d="M 5.359375,-2.078125 H 5.0625 c -0.046875,0.359375 -0.140625,0.890625 -0.25,1.0625 -0.09375,0.09375 -0.875,0.09375 -1.140625,0.09375 H 1.515625 L 2.78125,-2.15625 c 1.875,-1.640625 2.578125,-2.296875 2.578125,-3.484375 0,-1.359375 -1.0625,-2.3125 -2.53125,-2.3125 -1.34375,0 -2.234375,1.09375 -2.234375,2.15625 0,0.671875 0.59375,0.671875 0.640625,0.671875 0.203125,0 0.625,-0.140625 0.625,-0.640625 0,-0.3125 -0.21875,-0.625 -0.640625,-0.625 -0.09375,0 -0.125,0 -0.15625,0.015625 0.28125,-0.765625 0.921875,-1.21875 1.609375,-1.21875 1.09375,0 1.609375,0.96875 1.609375,1.953125 0,0.953125 -0.59375,1.90625 -1.25,2.640625 L 0.734375,-0.4375 C 0.59375,-0.3125 0.59375,-0.28125 0.59375,0 h 4.4375 z m 0,0"
             id="id-8e1a7693-2fb0-4785-967d-9ae46186bf94" />
        </g>
        <g
           id="g1248"
           transform="translate(195.322,134.765)">
          <path
             style="stroke:none"
             d="m 7.21875,-4.453125 c 0,-0.296875 -0.0625,-0.5625 -0.234375,-0.71875 C 6.90625,-5.25 6.8125,-5.28125 6.703125,-5.28125 c -0.140625,0 -0.296875,0.0625 -0.421875,0.1875 -0.09375,0.125 -0.15625,0.25 -0.15625,0.390625 0,0.109375 0.046875,0.203125 0.125,0.296875 0.296875,0.265625 0.453125,0.625 0.453125,1.046875 0,0.140625 -0.015625,0.296875 -0.046875,0.4375 -0.265625,1.09375 -0.96875,2.1875 -1.90625,2.1875 -0.671875,0 -1.0625,-0.453125 -1.171875,-1.078125 C 3.734375,-2.140625 3.84375,-2.5 3.9375,-2.859375 c 0.015625,-0.109375 0.046875,-0.21875 0.046875,-0.3125 0,-0.171875 -0.0625,-0.3125 -0.234375,-0.3125 -0.21875,0 -0.34375,0.3125 -0.40625,0.5625 -0.09375,0.375 -0.140625,0.734375 -0.15625,1.078125 -0.390625,0.65625 -0.96875,1.109375 -1.625,1.109375 -0.71875,0 -1.03125,-0.59375 -1.03125,-1.34375 0,-0.234375 0.03125,-0.515625 0.09375,-0.78125 C 0.796875,-3.578125 1.234375,-4.25 1.6875,-4.875 1.71875,-4.921875 1.75,-4.984375 1.75,-5.03125 1.75,-5.109375 1.703125,-5.15625 1.640625,-5.203125 1.609375,-5.21875 1.5625,-5.21875 1.53125,-5.21875 1.453125,-5.21875 1.375,-5.1875 1.3125,-5.109375 0.828125,-4.4375 0.53125,-3.671875 0.328125,-2.921875 0.21875,-2.46875 0.15625,-2 0.15625,-1.578125 c 0,0.96875 0.34375,1.703125 1.25,1.703125 0.75,0 1.375,-0.515625 1.828125,-1.265625 0.140625,0.75 0.5625,1.265625 1.359375,1.265625 1.234375,0 2,-1.53125 2.34375,-2.984375 C 7.078125,-3.375 7.21875,-3.96875 7.21875,-4.453125 Z m 0,0"
             id="id-ad7373b3-2acb-4530-a76d-3ecd9360351c" />
        </g>
      </g>
      <g
         style="fill:#000000;fill-opacity:1"
         id="id-86a751ac-7672-4980-83e9-73a53e628cda"
         transform="matrix(0.35277801,0,0,0.35277801,34.035684,64.083958)">
        <g
           id="g1252"
           transform="translate(202.877,134.765)">
          <path
             style="stroke:none"
             d="M 3.640625,-2.59375 V -3.375 c 0,-1.53125 -0.875,-3.09375 -2.34375,-4.5625 -0.046875,0.078125 -0.09375,0.125 -0.15625,0.1875 -0.046875,0.0625 -0.109375,0.109375 -0.1875,0.140625 1.328125,1.34375 1.96875,2.84375 1.96875,4.234375 v 0.78125 c 0,1.390625 -0.640625,2.875 -1.96875,4.21875 0.078125,0.03125 0.140625,0.078125 0.1875,0.140625 0.0625,0.0625 0.109375,0.125 0.15625,0.1875 1.46875,-1.46875 2.34375,-3.03125 2.34375,-4.546875 z m 0,0"
             id="id-787f6f7a-745d-4665-aaac-4631ef090d46" />
        </g>
      </g>
    </g>
    <g
       transform="translate(-10.016369,-78.619047)"
       id="g2240">
      <g
         style="fill:#000000;fill-opacity:1"
         id="id-0e3d2257-a67f-4391-9c09-49320dd9629c"
         transform="matrix(0.35277801,0,0,0.35277801,34.035684,64.083958)">
        <g
           id="g1256"
           transform="translate(207.946,134.765)">
          <path
             style="stroke:none"
             d="m 6.828125,-1.703125 c 0,-0.125 -0.109375,-0.125 -0.140625,-0.125 -0.125,0 -0.125,0.03125 -0.1875,0.21875 C 6.265625,-0.796875 5.875,-0.125 5.28125,-0.125 5.078125,-0.125 5,-0.25 5,-0.53125 5,-0.828125 5.109375,-1.109375 5.21875,-1.375 5.4375,-2.015625 5.9375,-3.328125 5.9375,-4 c 0,-0.8125 -0.515625,-1.28125 -1.375,-1.28125 -1.078125,0 -1.65625,0.765625 -1.859375,1.03125 -0.0625,-0.65625 -0.546875,-1.03125 -1.09375,-1.03125 -0.5625,0 -0.78125,0.46875 -0.90625,0.671875 -0.1875,0.40625 -0.359375,1.125 -0.359375,1.171875 0,0.109375 0.140625,0.109375 0.140625,0.109375 0.125,0 0.140625,0 0.203125,-0.265625 0.203125,-0.859375 0.453125,-1.421875 0.875,-1.421875 0.25,0 0.375,0.15625 0.375,0.546875 0,0.25 -0.03125,0.375 -0.1875,1 L 1.046875,-0.703125 C 1.015625,-0.53125 0.9375,-0.25 0.9375,-0.1875 c 0,0.21875 0.171875,0.3125 0.359375,0.3125 0.140625,0 0.359375,-0.09375 0.4375,-0.328125 C 1.75,-0.234375 1.890625,-0.78125 1.953125,-1.09375 l 0.265625,-1.0625 c 0.078125,-0.265625 0.140625,-0.53125 0.203125,-0.8125 l 0.15625,-0.59375 c 0.1875,-0.375 0.8125,-1.453125 1.953125,-1.453125 0.53125,0 0.640625,0.4375 0.640625,0.828125 0,0.75 -0.578125,2.28125 -0.765625,2.78125 -0.109375,0.28125 -0.125,0.421875 -0.125,0.5625 0,0.5625 0.421875,0.96875 0.984375,0.96875 1.125,0 1.5625,-1.734375 1.5625,-1.828125 z m 0,0"
             id="id-86d82914-2e24-4c54-aa50-b72c69162d37" />
        </g>
      </g>
      <g
         style="fill:#000000;fill-opacity:1"
         id="id-5f069809-cfc6-4d70-9381-7c30dc0b0ade"
         transform="matrix(0.35277801,0,0,0.35277801,34.035684,64.083958)">
        <g
           id="g1260"
           transform="translate(215.119,137.718)">
          <path
             style="stroke:none"
             d="m 3.9375,-0.828125 c 0,-0.046875 -0.0625,-0.125 -0.125,-0.125 -0.046875,0 -0.0625,0.015625 -0.125,0.078125 -0.625,0.734375 -1.5625,0.734375 -1.703125,0.734375 -0.484375,0 -0.796875,-0.328125 -0.796875,-0.96875 0,-0.109375 0,-0.265625 0.09375,-0.703125 h 0.5 c 0.234375,0 0.859375,-0.015625 1.28125,-0.171875 0.59375,-0.203125 0.703125,-0.59375 0.703125,-0.828125 0,-0.4375 -0.4375,-0.703125 -0.984375,-0.703125 -0.953125,0 -2.25,0.734375 -2.25,2.09375 0,0.8125 0.5,1.5 1.4375,1.5 1.34375,0 1.96875,-0.78125 1.96875,-0.90625 z M 3.421875,-2.8125 c 0,0.765625 -1.34375,0.765625 -1.6875,0.765625 H 1.34375 c 0.328125,-1.15625 1.21875,-1.25 1.4375,-1.25 0.34375,0 0.640625,0.1875 0.640625,0.484375 z m 0,0"
             id="id-fde0440b-6db4-4b11-9699-deec11b241ce" />
        </g>
      </g>
      <g
         style="fill:#000000;fill-opacity:1"
         id="id-8b611b75-7fc8-4c58-bdd3-fcd57284b1ca"
         transform="matrix(0.35277801,0,0,0.35277801,34.035684,64.083958)">
        <g
           id="g1264"
           transform="translate(219.937,134.765)">
          <path
             style="stroke:none"
             d="M 4.109375,-7.609375 C 4.046875,-7.640625 3.984375,-7.6875 3.921875,-7.75 3.859375,-7.8125 3.8125,-7.859375 3.78125,-7.9375 2.3125,-6.46875 1.4375,-4.90625 1.4375,-3.375 v 0.78125 c 0,1.515625 0.875,3.078125 2.34375,4.546875 0.03125,-0.0625 0.078125,-0.125 0.140625,-0.1875 0.0625,-0.0625 0.125,-0.109375 0.1875,-0.140625 C 2.78125,0.28125 2.15625,-1.203125 2.15625,-2.59375 V -3.375 c 0,-1.390625 0.625,-2.890625 1.953125,-4.234375 z m 0,0"
             id="id-e944b050-9faf-4fe7-b423-25e9f2d047ce" />
        </g>
      </g>
      <g
         style="fill:#000000;fill-opacity:1"
         id="id-53378e09-3ec0-40fe-b731-d90e911b3685"
         transform="matrix(0.35277801,0,0,0.35277801,34.035684,64.083958)">
        <g
           id="g1268"
           transform="translate(225.006,134.765)">
          <path
             style="stroke:none"
             d="M 5.359375,-2.078125 H 5.0625 c -0.046875,0.359375 -0.140625,0.890625 -0.25,1.0625 -0.09375,0.09375 -0.875,0.09375 -1.140625,0.09375 H 1.515625 L 2.78125,-2.15625 c 1.875,-1.640625 2.578125,-2.296875 2.578125,-3.484375 0,-1.359375 -1.0625,-2.3125 -2.53125,-2.3125 -1.34375,0 -2.234375,1.09375 -2.234375,2.15625 0,0.671875 0.59375,0.671875 0.640625,0.671875 0.203125,0 0.625,-0.140625 0.625,-0.640625 0,-0.3125 -0.21875,-0.625 -0.640625,-0.625 -0.09375,0 -0.125,0 -0.15625,0.015625 0.28125,-0.765625 0.921875,-1.21875 1.609375,-1.21875 1.09375,0 1.609375,0.96875 1.609375,1.953125 0,0.953125 -0.59375,1.90625 -1.25,2.640625 L 0.734375,-0.4375 C 0.59375,-0.3125 0.59375,-0.28125 0.59375,0 h 4.4375 z m 0,0"
             id="id-ef0fcdaf-203b-4aec-97c3-6440ba7866d3" />
        </g>
        <g
           id="g1271"
           transform="translate(230.984,134.765)">
          <path
             style="stroke:none"
             d="m 7.21875,-4.453125 c 0,-0.296875 -0.0625,-0.5625 -0.234375,-0.71875 C 6.90625,-5.25 6.8125,-5.28125 6.703125,-5.28125 c -0.140625,0 -0.296875,0.0625 -0.421875,0.1875 -0.09375,0.125 -0.15625,0.25 -0.15625,0.390625 0,0.109375 0.046875,0.203125 0.125,0.296875 0.296875,0.265625 0.453125,0.625 0.453125,1.046875 0,0.140625 -0.015625,0.296875 -0.046875,0.4375 -0.265625,1.09375 -0.96875,2.1875 -1.90625,2.1875 -0.671875,0 -1.0625,-0.453125 -1.171875,-1.078125 C 3.734375,-2.140625 3.84375,-2.5 3.9375,-2.859375 c 0.015625,-0.109375 0.046875,-0.21875 0.046875,-0.3125 0,-0.171875 -0.0625,-0.3125 -0.234375,-0.3125 -0.21875,0 -0.34375,0.3125 -0.40625,0.5625 -0.09375,0.375 -0.140625,0.734375 -0.15625,1.078125 -0.390625,0.65625 -0.96875,1.109375 -1.625,1.109375 -0.71875,0 -1.03125,-0.59375 -1.03125,-1.34375 0,-0.234375 0.03125,-0.515625 0.09375,-0.78125 C 0.796875,-3.578125 1.234375,-4.25 1.6875,-4.875 1.71875,-4.921875 1.75,-4.984375 1.75,-5.03125 1.75,-5.109375 1.703125,-5.15625 1.640625,-5.203125 1.609375,-5.21875 1.5625,-5.21875 1.53125,-5.21875 1.453125,-5.21875 1.375,-5.1875 1.3125,-5.109375 0.828125,-4.4375 0.53125,-3.671875 0.328125,-2.921875 0.21875,-2.46875 0.15625,-2 0.15625,-1.578125 c 0,0.96875 0.34375,1.703125 1.25,1.703125 0.75,0 1.375,-0.515625 1.828125,-1.265625 0.140625,0.75 0.5625,1.265625 1.359375,1.265625 1.234375,0 2,-1.53125 2.34375,-2.984375 C 7.078125,-3.375 7.21875,-3.96875 7.21875,-4.453125 Z m 0,0"
             id="id-b3607098-6ca8-4921-ab32-b677996ea490" />
        </g>
      </g>
      <g
         style="fill:#000000;fill-opacity:1"
         id="id-1dbb178b-d971-4d63-8786-299bcf684052"
         transform="matrix(0.35277801,0,0,0.35277801,34.035684,64.083958)">
        <g
           id="g1275"
           transform="translate(238.539,134.765)">
          <path
             style="stroke:none"
             d="M 3.640625,-2.59375 V -3.375 c 0,-1.53125 -0.875,-3.09375 -2.34375,-4.5625 -0.046875,0.078125 -0.09375,0.125 -0.15625,0.1875 -0.046875,0.0625 -0.109375,0.109375 -0.1875,0.140625 1.328125,1.34375 1.96875,2.84375 1.96875,4.234375 v 0.78125 c 0,1.390625 -0.640625,2.875 -1.96875,4.21875 0.078125,0.03125 0.140625,0.078125 0.1875,0.140625 0.0625,0.0625 0.109375,0.125 0.15625,0.1875 1.46875,-1.46875 2.34375,-3.03125 2.34375,-4.546875 z m 0,0"
             id="id-d74fbe7d-69cc-465f-87d8-95c55a9b3af6" />
        </g>
      </g>
    </g>
    <g
       transform="translate(-26.5284,-45.123529)"
       id="g2257">
      <g
         style="fill:#000000;fill-opacity:1"
         id="id-37cf7061-5c8f-490f-ad3c-24077ff4040d"
         transform="matrix(0.35277801,0,0,0.35277801,34.035684,64.083958)">
        <g
           id="g1279"
           transform="translate(243.608,134.765)">
          <path
             style="stroke:none"
             d="m 6.828125,-1.703125 c 0,-0.125 -0.109375,-0.125 -0.140625,-0.125 -0.125,0 -0.125,0.03125 -0.1875,0.21875 C 6.265625,-0.796875 5.875,-0.125 5.28125,-0.125 5.078125,-0.125 5,-0.25 5,-0.53125 5,-0.828125 5.109375,-1.109375 5.21875,-1.375 5.4375,-2.015625 5.9375,-3.328125 5.9375,-4 c 0,-0.8125 -0.515625,-1.28125 -1.375,-1.28125 -1.078125,0 -1.65625,0.765625 -1.859375,1.03125 -0.0625,-0.65625 -0.546875,-1.03125 -1.09375,-1.03125 -0.5625,0 -0.78125,0.46875 -0.90625,0.671875 -0.1875,0.40625 -0.359375,1.125 -0.359375,1.171875 0,0.109375 0.140625,0.109375 0.140625,0.109375 0.125,0 0.140625,0 0.203125,-0.265625 0.203125,-0.859375 0.453125,-1.421875 0.875,-1.421875 0.25,0 0.375,0.15625 0.375,0.546875 0,0.25 -0.03125,0.375 -0.1875,1 L 1.046875,-0.703125 C 1.015625,-0.53125 0.9375,-0.25 0.9375,-0.1875 c 0,0.21875 0.171875,0.3125 0.359375,0.3125 0.140625,0 0.359375,-0.09375 0.4375,-0.328125 C 1.75,-0.234375 1.890625,-0.78125 1.953125,-1.09375 l 0.265625,-1.0625 c 0.078125,-0.265625 0.140625,-0.53125 0.203125,-0.8125 l 0.15625,-0.59375 c 0.1875,-0.375 0.8125,-1.453125 1.953125,-1.453125 0.53125,0 0.640625,0.4375 0.640625,0.828125 0,0.75 -0.578125,2.28125 -0.765625,2.78125 -0.109375,0.28125 -0.125,0.421875 -0.125,0.5625 0,0.5625 0.421875,0.96875 0.984375,0.96875 1.125,0 1.5625,-1.734375 1.5625,-1.828125 z m 0,0"
             id="id-9231e0cc-6973-42fb-af2e-a88697e71f33" />
        </g>
      </g>
      <g
         style="fill:#000000;fill-opacity:1"
         id="id-88380208-e99f-4164-a113-49dcd55f9008"
         transform="matrix(0.35277801,0,0,0.35277801,34.035684,64.083958)">
        <g
           id="g1283"
           transform="translate(250.782,137.718)">
          <path
             style="stroke:none"
             d="m 3.9375,-0.828125 c 0,-0.046875 -0.0625,-0.125 -0.125,-0.125 -0.046875,0 -0.0625,0.015625 -0.125,0.078125 -0.625,0.734375 -1.5625,0.734375 -1.703125,0.734375 -0.484375,0 -0.796875,-0.328125 -0.796875,-0.96875 0,-0.109375 0,-0.265625 0.09375,-0.703125 h 0.5 c 0.234375,0 0.859375,-0.015625 1.28125,-0.171875 0.59375,-0.203125 0.703125,-0.59375 0.703125,-0.828125 0,-0.4375 -0.4375,-0.703125 -0.984375,-0.703125 -0.953125,0 -2.25,0.734375 -2.25,2.09375 0,0.8125 0.5,1.5 1.4375,1.5 1.34375,0 1.96875,-0.78125 1.96875,-0.90625 z M 3.421875,-2.8125 c 0,0.765625 -1.34375,0.765625 -1.6875,0.765625 H 1.34375 c 0.328125,-1.15625 1.21875,-1.25 1.4375,-1.25 0.34375,0 0.640625,0.1875 0.640625,0.484375 z m 0,0"
             id="id-a79a75f7-2349-4d94-ba94-5e34a3f94f2d" />
        </g>
      </g>
      <g
         style="fill:#000000;fill-opacity:1"
         id="id-fe9cf0b2-77ea-42d1-b3c5-948bb4444ba0"
         transform="matrix(0.35277801,0,0,0.35277801,34.035684,64.083958)">
        <g
           id="g1287"
           transform="translate(255.599,134.765)">
          <path
             style="stroke:none"
             d="M 4.109375,-7.609375 C 4.046875,-7.640625 3.984375,-7.6875 3.921875,-7.75 3.859375,-7.8125 3.8125,-7.859375 3.78125,-7.9375 2.3125,-6.46875 1.4375,-4.90625 1.4375,-3.375 v 0.78125 c 0,1.515625 0.875,3.078125 2.34375,4.546875 0.03125,-0.0625 0.078125,-0.125 0.140625,-0.1875 0.0625,-0.0625 0.125,-0.109375 0.1875,-0.140625 C 2.78125,0.28125 2.15625,-1.203125 2.15625,-2.59375 V -3.375 c 0,-1.390625 0.625,-2.890625 1.953125,-4.234375 z m 0,0"
             id="id-f4567a4f-8a29-4f2b-83e6-d0c4fcaa9fa1" />
        </g>
      </g>
      <g
         style="fill:#000000;fill-opacity:1"
         id="id-c1843a5f-947f-410c-8703-6043eae29048"
         transform="matrix(0.35277801,0,0,0.35277801,34.035684,64.083958)">
        <g
           id="g1291"
           transform="translate(260.668,134.765)">
          <path
             style="stroke:none"
             d="m 7.21875,-4.453125 c 0,-0.296875 -0.0625,-0.5625 -0.234375,-0.71875 C 6.90625,-5.25 6.8125,-5.28125 6.703125,-5.28125 c -0.140625,0 -0.296875,0.0625 -0.421875,0.1875 -0.09375,0.125 -0.15625,0.25 -0.15625,0.390625 0,0.109375 0.046875,0.203125 0.125,0.296875 0.296875,0.265625 0.453125,0.625 0.453125,1.046875 0,0.140625 -0.015625,0.296875 -0.046875,0.4375 -0.265625,1.09375 -0.96875,2.1875 -1.90625,2.1875 -0.671875,0 -1.0625,-0.453125 -1.171875,-1.078125 C 3.734375,-2.140625 3.84375,-2.5 3.9375,-2.859375 c 0.015625,-0.109375 0.046875,-0.21875 0.046875,-0.3125 0,-0.171875 -0.0625,-0.3125 -0.234375,-0.3125 -0.21875,0 -0.34375,0.3125 -0.40625,0.5625 -0.09375,0.375 -0.140625,0.734375 -0.15625,1.078125 -0.390625,0.65625 -0.96875,1.109375 -1.625,1.109375 -0.71875,0 -1.03125,-0.59375 -1.03125,-1.34375 0,-0.234375 0.03125,-0.515625 0.09375,-0.78125 C 0.796875,-3.578125 1.234375,-4.25 1.6875,-4.875 1.71875,-4.921875 1.75,-4.984375 1.75,-5.03125 1.75,-5.109375 1.703125,-5.15625 1.640625,-5.203125 1.609375,-5.21875 1.5625,-5.21875 1.53125,-5.21875 1.453125,-5.21875 1.375,-5.1875 1.3125,-5.109375 0.828125,-4.4375 0.53125,-3.671875 0.328125,-2.921875 0.21875,-2.46875 0.15625,-2 0.15625,-1.578125 c 0,0.96875 0.34375,1.703125 1.25,1.703125 0.75,0 1.375,-0.515625 1.828125,-1.265625 0.140625,0.75 0.5625,1.265625 1.359375,1.265625 1.234375,0 2,-1.53125 2.34375,-2.984375 C 7.078125,-3.375 7.21875,-3.96875 7.21875,-4.453125 Z m 0,0"
             id="id-dbefcb47-2c0e-4345-aeff-e59099a96b32" />
        </g>
      </g>
      <g
         style="fill:#000000;fill-opacity:1"
         id="id-d6283637-a85d-42ae-8405-3cbf4ad1c380"
         transform="matrix(0.35277801,0,0,0.35277801,34.035684,64.083958)">
        <g
           id="g1295"
           transform="translate(268.224,134.765)">
          <path
             style="stroke:none"
             d="M 3.640625,-2.59375 V -3.375 c 0,-1.53125 -0.875,-3.09375 -2.34375,-4.5625 -0.046875,0.078125 -0.09375,0.125 -0.15625,0.1875 -0.046875,0.0625 -0.109375,0.109375 -0.1875,0.140625 1.328125,1.34375 1.96875,2.84375 1.96875,4.234375 v 0.78125 c 0,1.390625 -0.640625,2.875 -1.96875,4.21875 0.078125,0.03125 0.140625,0.078125 0.1875,0.140625 0.0625,0.0625 0.109375,0.125 0.15625,0.1875 1.46875,-1.46875 2.34375,-3.03125 2.34375,-4.546875 z m 0,0"
             id="id-3412b2aa-0709-4ebc-9cae-05691ce7fb48" />
        </g>
      </g>
    </g>
    <g
       transform="translate(-36.66369,-67.279762)"
       id="g2274">
      <g
         style="fill:#000000;fill-opacity:1"
         id="id-78078164-d29f-4ac8-b06b-152eb9aa235c"
         transform="matrix(0.35277801,0,0,0.35277801,34.035684,64.083958)">
        <g
           id="g1299"
           transform="translate(273.293,134.765)">
          <path
             style="stroke:none"
             d="m 6.828125,-1.703125 c 0,-0.125 -0.109375,-0.125 -0.140625,-0.125 -0.125,0 -0.125,0.03125 -0.1875,0.21875 C 6.265625,-0.796875 5.875,-0.125 5.28125,-0.125 5.078125,-0.125 5,-0.25 5,-0.53125 5,-0.828125 5.109375,-1.109375 5.21875,-1.375 5.4375,-2.015625 5.9375,-3.328125 5.9375,-4 c 0,-0.8125 -0.515625,-1.28125 -1.375,-1.28125 -1.078125,0 -1.65625,0.765625 -1.859375,1.03125 -0.0625,-0.65625 -0.546875,-1.03125 -1.09375,-1.03125 -0.5625,0 -0.78125,0.46875 -0.90625,0.671875 -0.1875,0.40625 -0.359375,1.125 -0.359375,1.171875 0,0.109375 0.140625,0.109375 0.140625,0.109375 0.125,0 0.140625,0 0.203125,-0.265625 0.203125,-0.859375 0.453125,-1.421875 0.875,-1.421875 0.25,0 0.375,0.15625 0.375,0.546875 0,0.25 -0.03125,0.375 -0.1875,1 L 1.046875,-0.703125 C 1.015625,-0.53125 0.9375,-0.25 0.9375,-0.1875 c 0,0.21875 0.171875,0.3125 0.359375,0.3125 0.140625,0 0.359375,-0.09375 0.4375,-0.328125 C 1.75,-0.234375 1.890625,-0.78125 1.953125,-1.09375 l 0.265625,-1.0625 c 0.078125,-0.265625 0.140625,-0.53125 0.203125,-0.8125 l 0.15625,-0.59375 c 0.1875,-0.375 0.8125,-1.453125 1.953125,-1.453125 0.53125,0 0.640625,0.4375 0.640625,0.828125 0,0.75 -0.578125,2.28125 -0.765625,2.78125 -0.109375,0.28125 -0.125,0.421875 -0.125,0.5625 0,0.5625 0.421875,0.96875 0.984375,0.96875 1.125,0 1.5625,-1.734375 1.5625,-1.828125 z m 0,0"
             id="id-e3fae29b-385a-4f08-870c-3eedf5ea5df6" />
        </g>
      </g>
      <g
         style="fill:#000000;fill-opacity:1"
         id="id-69e64bd7-a032-4c5a-b432-ccaf2f131f57"
         transform="matrix(0.35277801,0,0,0.35277801,34.035684,64.083958)">
        <g
           id="g1303"
           transform="translate(280.466,137.718)">
          <path
             style="stroke:none"
             d="M 4.234375,-2.125 C 4.234375,-3 3.5625,-3.515625 2.78125,-3.515625 1.609375,-3.515625 0.5,-2.40625 0.5,-1.3125 c 0,0.796875 0.578125,1.390625 1.4375,1.390625 1.140625,0 2.296875,-1.046875 2.296875,-2.203125 z m -0.65625,-0.28125 c 0,0.1875 -0.09375,0.984375 -0.453125,1.53125 -0.296875,0.484375 -0.78125,0.734375 -1.171875,0.734375 -0.40625,0 -0.796875,-0.25 -0.796875,-0.890625 0,-0.328125 0.15625,-1.109375 0.46875,-1.5625 0.328125,-0.484375 0.796875,-0.703125 1.15625,-0.703125 0.4375,0 0.796875,0.296875 0.796875,0.890625 z m 0,0"
             id="id-750e67d6-a9d8-47ac-81e6-cee7277db2c0" />
        </g>
      </g>
      <g
         style="fill:#000000;fill-opacity:1"
         id="id-9cac8562-0c41-4700-bde6-b080ed51bf8c"
         transform="matrix(0.35277801,0,0,0.35277801,34.035684,64.083958)">
        <g
           id="g1307"
           transform="translate(285.459,134.765)">
          <path
             style="stroke:none"
             d="M 4.109375,-7.609375 C 4.046875,-7.640625 3.984375,-7.6875 3.921875,-7.75 3.859375,-7.8125 3.8125,-7.859375 3.78125,-7.9375 2.3125,-6.46875 1.4375,-4.90625 1.4375,-3.375 v 0.78125 c 0,1.515625 0.875,3.078125 2.34375,4.546875 0.03125,-0.0625 0.078125,-0.125 0.140625,-0.1875 0.0625,-0.0625 0.125,-0.109375 0.1875,-0.140625 C 2.78125,0.28125 2.15625,-1.203125 2.15625,-2.59375 V -3.375 c 0,-1.390625 0.625,-2.890625 1.953125,-4.234375 z m 0,0"
             id="id-880e6ecb-7bd6-41be-962d-f50dd8fb594b" />
        </g>
      </g>
      <g
         style="fill:#000000;fill-opacity:1"
         id="id-332b2e4e-bbed-4fa1-91ff-362ce45169f1"
         transform="matrix(0.35277801,0,0,0.35277801,34.035684,64.083958)">
        <g
           id="g1311"
           transform="translate(290.528,134.765)">
          <path
             style="stroke:none"
             d="m 7.21875,-4.453125 c 0,-0.296875 -0.0625,-0.5625 -0.234375,-0.71875 C 6.90625,-5.25 6.8125,-5.28125 6.703125,-5.28125 c -0.140625,0 -0.296875,0.0625 -0.421875,0.1875 -0.09375,0.125 -0.15625,0.25 -0.15625,0.390625 0,0.109375 0.046875,0.203125 0.125,0.296875 0.296875,0.265625 0.453125,0.625 0.453125,1.046875 0,0.140625 -0.015625,0.296875 -0.046875,0.4375 -0.265625,1.09375 -0.96875,2.1875 -1.90625,2.1875 -0.671875,0 -1.0625,-0.453125 -1.171875,-1.078125 C 3.734375,-2.140625 3.84375,-2.5 3.9375,-2.859375 c 0.015625,-0.109375 0.046875,-0.21875 0.046875,-0.3125 0,-0.171875 -0.0625,-0.3125 -0.234375,-0.3125 -0.21875,0 -0.34375,0.3125 -0.40625,0.5625 -0.09375,0.375 -0.140625,0.734375 -0.15625,1.078125 -0.390625,0.65625 -0.96875,1.109375 -1.625,1.109375 -0.71875,0 -1.03125,-0.59375 -1.03125,-1.34375 0,-0.234375 0.03125,-0.515625 0.09375,-0.78125 C 0.796875,-3.578125 1.234375,-4.25 1.6875,-4.875 1.71875,-4.921875 1.75,-4.984375 1.75,-5.03125 1.75,-5.109375 1.703125,-5.15625 1.640625,-5.203125 1.609375,-5.21875 1.5625,-5.21875 1.53125,-5.21875 1.453125,-5.21875 1.375,-5.1875 1.3125,-5.109375 0.828125,-4.4375 0.53125,-3.671875 0.328125,-2.921875 0.21875,-2.46875 0.15625,-2 0.15625,-1.578125 c 0,0.96875 0.34375,1.703125 1.25,1.703125 0.75,0 1.375,-0.515625 1.828125,-1.265625 0.140625,0.75 0.5625,1.265625 1.359375,1.265625 1.234375,0 2,-1.53125 2.34375,-2.984375 C 7.078125,-3.375 7.21875,-3.96875 7.21875,-4.453125 Z m 0,0"
             id="id-e18e8969-b31e-472b-aef1-5fe21dd0445c" />
        </g>
      </g>
      <g
         style="fill:#000000;fill-opacity:1"
         id="id-ee2cca36-407d-468f-ab2d-7775c4c67a66"
         transform="matrix(0.35277801,0,0,0.35277801,34.035684,64.083958)">
        <g
           id="g1315"
           transform="translate(298.084,134.765)">
          <path
             style="stroke:none"
             d="M 3.640625,-2.59375 V -3.375 c 0,-1.53125 -0.875,-3.09375 -2.34375,-4.5625 -0.046875,0.078125 -0.09375,0.125 -0.15625,0.1875 -0.046875,0.0625 -0.109375,0.109375 -0.1875,0.140625 1.328125,1.34375 1.96875,2.84375 1.96875,4.234375 v 0.78125 c 0,1.390625 -0.640625,2.875 -1.96875,4.21875 0.078125,0.03125 0.140625,0.078125 0.1875,0.140625 0.0625,0.0625 0.109375,0.125 0.15625,0.1875 1.46875,-1.46875 2.34375,-3.03125 2.34375,-4.546875 z m 0,0"
             id="id-ba2b06ae-108e-49f3-8ace-0bfbaaba173b" />
        </g>
      </g>
    </g>
    <path
       id="path1756"
       d="M 140.11275,54.887241 167.59206,25.414828"
       style="fill:none;fill-opacity:1;stroke:#000000;stroke-width:0.25;stroke-linecap:round;stroke-linejoin:round;stroke-miterlimit:4;stroke-dasharray:none" />
    <path
       sodipodi:open="true"
       d="m 140.44118,15.002433 a 40,40 0 0 1 26.45128,10.386833"
       sodipodi:arc-type="arc"
       sodipodi:end="5.4497159"
       sodipodi:start="4.7234188"
       sodipodi:ry="40"
       sodipodi:rx="40"
       sodipodi:cy="55"
       sodipodi:cx="140"
       sodipodi:type="arc"
       id="path1758"
       style="fill:none;fill-opacity:1;stroke:#000000;stroke-width:0.25;stroke-linecap:round;stroke-linejoin:round;stroke-miterlimit:4;stroke-dasharray:none;marker-start:url(#marker1762);marker-end:url(#marker1802)" />
    <path
       id="path1894"
       d="m 104.89702,24.856066 h 15.52644"
       style="fill:none;fill-opacity:1;stroke:#000000;stroke-width:0.243653;stroke-linecap:round;stroke-linejoin:round;stroke-miterlimit:4;stroke-dasharray:none;marker-end:url(#marker1898);paint-order:normal" />
    <path
       id="path2084"
       d="M 94.966516,34.868302 H 126.99372"
       style="fill:none;fill-opacity:1;stroke:#000000;stroke-width:0.247495;stroke-linecap:butt;stroke-linejoin:round;stroke-miterlimit:4;stroke-dasharray:none;marker-end:url(#marker2146);paint-order:normal" />
    <path
       id="path2276"
       d="M 91.842265,46.000001 H 121.59811"
       style="fill:none;fill-opacity:1;stroke:#000000;stroke-width:0.247772;stroke-linecap:butt;stroke-linejoin:round;stroke-miterlimit:4;stroke-dasharray:none;marker-end:url(#marker2344);paint-order:normal" />
    <path
       id="path2392"
       d="m 92,67.999998 h 41.68471"
       style="fill:none;fill-opacity:1;stroke:#000000;stroke-width:0.25;stroke-linecap:butt;stroke-linejoin:round;stroke-miterlimit:4;stroke-dasharray:none;marker-end:url(#marker2396);paint-order:normal" />
  </g>
</svg>
