<?xml version="1.0" encoding="UTF-8" standalone="no"?>
<svg
   xmlns:dc="http://purl.org/dc/elements/1.1/"
   xmlns:cc="http://creativecommons.org/ns#"
   xmlns:rdf="http://www.w3.org/1999/02/22-rdf-syntax-ns#"
   xmlns:svg="http://www.w3.org/2000/svg"
   xmlns="http://www.w3.org/2000/svg"
   xmlns:sodipodi="http://sodipodi.sourceforge.net/DTD/sodipodi-0.dtd"
   xmlns:inkscape="http://www.inkscape.org/namespaces/inkscape"
   sodipodi:docname="1.svg"
   inkscape:version="1.0 (4035a4f, 2020-05-01)"
   id="svg8"
   version="1.1"
   viewBox="0 0 210 297"
   height="297mm"
   width="210mm">
  <defs
     id="defs2">
    <marker
       inkscape:stockid="Arrow1Mend"
       orient="auto"
       refY="0.0"
       refX="0.0"
       id="marker1826"
       style="overflow:visible;"
       inkscape:isstock="true">
      <path
         id="path1824"
         d="M 0.0,0.0 L 5.0,-5.0 L -12.5,0.0 L 5.0,5.0 L 0.0,0.0 z "
         style="fill-rule:evenodd;stroke:#1750cf;stroke-width:1pt;stroke-opacity:1;fill:#1750cf;fill-opacity:1"
         transform="scale(0.4) rotate(180) translate(10,0)" />
    </marker>
    <marker
       inkscape:collect="always"
       inkscape:isstock="true"
       style="overflow:visible;"
       id="marker1790"
       refX="0.0"
       refY="0.0"
       orient="auto"
       inkscape:stockid="Arrow1Mend">
      <path
         transform="scale(0.4) rotate(180) translate(10,0)"
         style="fill-rule:evenodd;stroke:#1750cf;stroke-width:1pt;stroke-opacity:1;fill:#1750cf;fill-opacity:1"
         d="M 0.0,0.0 L 5.0,-5.0 L -12.5,0.0 L 5.0,5.0 L 0.0,0.0 z "
         id="path1536" />
    </marker>
    <marker
       inkscape:stockid="Arrow1Mstart"
       orient="auto"
       refY="0.0"
       refX="0.0"
       id="Arrow1Mstart"
       style="overflow:visible"
       inkscape:isstock="true">
      <path
         id="path843"
         d="M 0.0,0.0 L 5.0,-5.0 L -12.5,0.0 L 5.0,5.0 L 0.0,0.0 z "
         style="fill-rule:evenodd;stroke:#000000;stroke-width:1pt;stroke-opacity:1;fill:#000000;fill-opacity:1"
         transform="scale(0.4) translate(10,0)" />
    </marker>
    <marker
       inkscape:stockid="Arrow1Lend"
       orient="auto"
       refY="0.0"
       refX="0.0"
       id="Arrow1Lend"
       style="overflow:visible;"
       inkscape:isstock="true">
      <path
         id="path840"
         d="M 0.0,0.0 L 5.0,-5.0 L -12.5,0.0 L 5.0,5.0 L 0.0,0.0 z "
         style="fill-rule:evenodd;stroke:#000000;stroke-width:1pt;stroke-opacity:1;fill:#000000;fill-opacity:1"
         transform="scale(0.8) rotate(180) translate(12.5,0)" />
    </marker>
    <marker
       inkscape:stockid="Arrow1Mend"
       orient="auto"
       refY="0.0"
       refX="0.0"
       id="Arrow1Mend"
       style="overflow:visible;"
       inkscape:isstock="true">
      <path
         id="path846"
         d="M 0.0,0.0 L 5.0,-5.0 L -12.5,0.0 L 5.0,5.0 L 0.0,0.0 z "
         style="fill-rule:evenodd;stroke:#000000;stroke-width:1pt;stroke-opacity:1;fill:#000000;fill-opacity:1"
         transform="scale(0.4) rotate(180) translate(10,0)" />
    </marker>
    <defs
       id="id-a16ec0d8-0cae-483d-a53c-488e2c6765e8">
      <g
         id="id-83a747ee-69ef-4805-b1e8-4d93c57999d7">
        <symbol
           overflow="visible"
           id="id-3036d52c-23f4-4fcd-8dfb-6ef41d89104c">
          <path
             style="stroke:none"
             d=""
             id="id-bf3a4419-18a6-432f-94f7-f78d60ca52f1" />
        </symbol>
        <symbol
           overflow="visible"
           id="id-3175b6b9-953b-47fb-8b67-bf1df36307eb">
          <path
             style="stroke:none"
             d="M 9.125,-7.8125 C 9.15625,-8.125 9.09375,-8.125 8.796875,-8.125 h -6.03125 c -0.25,0 -0.359375,0 -0.359375,0.234375 0,0.140625 0.109375,0.140625 0.328125,0.140625 0.4375,0 0.78125,0 0.78125,0.203125 0,0.046875 0,0.078125 -0.0625,0.296875 L 1.875,-0.9375 C 1.75,-0.46875 1.734375,-0.375 0.78125,-0.375 c -0.203125,0 -0.328125,0 -0.328125,0.234375 C 0.453125,0 0.5625,0 0.78125,0 H 7 C 7.265625,0 7.28125,-0.015625 7.359375,-0.203125 L 8.46875,-2.78125 c 0.015625,-0.0625 0.046875,-0.171875 0.046875,-0.171875 0,0 0,-0.125 -0.140625,-0.125 -0.109375,0 -0.125,0.0625 -0.15625,0.140625 C 7.453125,-1.171875 7,-0.375 4.953125,-0.375 H 3.21875 c -0.171875,0 -0.1875,0 -0.265625,0 -0.125,-0.015625 -0.15625,-0.03125 -0.15625,-0.125 0,-0.03125 0,-0.0625 0.0625,-0.28125 l 0.8125,-3.265625 h 1.1875 c 1.015625,0 1.015625,0.25 1.015625,0.5625 0,0.078125 0,0.21875 -0.09375,0.578125 C 5.765625,-2.84375 5.75,-2.8125 5.75,-2.765625 c 0,0.046875 0.046875,0.125 0.15625,0.125 0.09375,0 0.125,-0.0625 0.171875,-0.234375 l 0.6875,-2.796875 C 6.765625,-5.75 6.703125,-5.8125 6.625,-5.8125 c -0.109375,0 -0.140625,0.078125 -0.171875,0.21875 -0.25,0.90625 -0.46875,1.1875 -1.5625,1.1875 h -1.125 l 0.71875,-2.890625 C 4.59375,-7.703125 4.609375,-7.75 5.125,-7.75 h 1.6875 c 1.453125,0 1.8125,0.34375 1.8125,1.3125 0,0.296875 0,0.3125 -0.046875,0.640625 0,0.078125 0,0.15625 0,0.21875 0,0.0625 0.03125,0.140625 0.140625,0.140625 0.125,0 0.140625,-0.078125 0.15625,-0.296875 z m 0,0"
             id="id-dee34e62-9388-4d4f-8fc7-92190361626e" />
        </symbol>
        <symbol
           overflow="visible"
           id="id-05b97459-a689-41f5-8ad8-d2415116e9d2">
          <path
             style="stroke:none"
             d="m 8.625,-4.140625 c 0,-0.140625 -0.109375,-0.25 -0.234375,-0.25 H 0.90625 c -0.125,0 -0.234375,0.109375 -0.234375,0.25 0,0.125 0.109375,0.234375 0.234375,0.234375 h 7.484375 c 0.125,0 0.234375,-0.109375 0.234375,-0.234375 z m 0,2.3125 c 0,-0.125 -0.109375,-0.234375 -0.234375,-0.234375 H 0.90625 c -0.125,0 -0.234375,0.109375 -0.234375,0.234375 0,0.125 0.109375,0.234375 0.234375,0.234375 h 7.484375 c 0.125,0 0.234375,-0.109375 0.234375,-0.234375 z m 0,0"
             id="id-4cbc65d4-1fdc-45fa-893c-bf5b25db2ad8" />
        </symbol>
        <symbol
           overflow="visible"
           id="id-966d19db-5cd8-40c8-ab2c-e099a1a04af7">
          <path
             style="stroke:none"
             d="m 5.671875,-4.71875 c 0,-0.203125 -0.15625,-0.328125 -0.359375,-0.328125 -0.109375,0 -0.4375,0.09375 -0.484375,0.515625 -0.21875,-0.4375 -0.625,-0.75 -1.109375,-0.75 -1.359375,0 -2.84375,1.671875 -2.84375,3.390625 C 0.875,-0.703125 1.609375,0 2.46875,0 3.171875,0 3.734375,-0.5625 3.84375,-0.6875 H 3.859375 L 3.46875,0.890625 C 3.421875,1 3.015625,2.1875 1.75,2.1875 c -0.234375,0 -0.625,-0.015625 -0.96875,-0.125 0.359375,-0.109375 0.5,-0.40625 0.5,-0.609375 C 1.28125,1.25 1.140625,1.03125 0.828125,1.03125 c -0.265625,0 -0.65625,0.21875 -0.65625,0.6875 0,0.5 0.453125,0.734375 1.59375,0.734375 1.5,0 2.359375,-0.9375 2.53125,-1.65625 L 5.625,-4.5 C 5.640625,-4.578125 5.671875,-4.640625 5.671875,-4.71875 Z M 4.6875,-4 c 0,0.0625 -0.03125,0.140625 -0.03125,0.1875 L 4.078125,-1.53125 C 4,-1.21875 3.734375,-0.921875 3.46875,-0.6875 c -0.25,0.203125 -0.625,0.421875 -0.96875,0.421875 -0.59375,0 -0.78125,-0.625 -0.78125,-1.09375 0,-0.578125 0.34375,-1.984375 0.671875,-2.59375 0.328125,-0.59375 0.84375,-1.0625 1.34375,-1.0625 0.78125,0 0.953125,0.96875 0.953125,1.015625 z m 0,0"
             id="id-c70a9312-ef6a-4dab-ac10-5a1fa40aacfd" />
        </symbol>
        <symbol
           overflow="visible"
           id="id-96256c06-a591-463f-988e-da5fba84e943">
          <path
             style="stroke:none"
             d="m 6.859375,-6.859375 c 0,-0.375 -0.125,-0.71875 -0.34375,-0.984375 C 6.1875,-8.21875 5.6875,-8.4375 5.125,-8.4375 c -1.4375,0 -2.515625,1.640625 -2.921875,3.265625 l -1.84375,7.34375 c 0,0.09375 0.046875,0.140625 0.125,0.140625 H 0.53125 c 0.0625,0 0.109375,-0.03125 0.125,-0.078125 l 0.8125,-3.28125 C 1.671875,-0.34375 2.21875,0.125 3.03125,0.125 3.71875,0.125 4.453125,-0.09375 5.0625,-0.546875 5.640625,-0.984375 6.078125,-1.59375 6.25,-2.21875 6.3125,-2.484375 6.34375,-2.75 6.34375,-2.984375 c 0,-0.484375 -0.109375,-0.921875 -0.359375,-1.296875 -0.140625,-0.203125 -0.3125,-0.375 -0.515625,-0.515625 0.125,-0.0625 0.25,-0.140625 0.359375,-0.234375 0.484375,-0.359375 0.84375,-0.84375 0.96875,-1.390625 0.046875,-0.15625 0.0625,-0.296875 0.0625,-0.4375 z M 6.1875,-7.078125 c 0,0.1875 -0.015625,0.390625 -0.078125,0.59375 C 6,-6.03125 5.78125,-5.5625 5.421875,-5.21875 5.3125,-5.140625 5.21875,-5.0625 5.109375,-5 c -0.25,-0.09375 -0.515625,-0.15625 -0.8125,-0.15625 -0.421875,0 -0.921875,0 -1.015625,0.328125 0,0.015625 0,0.078125 0,0.078125 0,0.296875 0.484375,0.296875 0.90625,0.296875 0.296875,0 0.59375,-0.046875 0.890625,-0.15625 0.15625,0.109375 0.28125,0.265625 0.359375,0.46875 0.125,0.25 0.171875,0.515625 0.171875,0.8125 0,0.34375 -0.0625,0.703125 -0.140625,1.046875 -0.15625,0.546875 -0.40625,1.109375 -0.875,1.53125 -0.453125,0.390625 -1.015625,0.625 -1.546875,0.625 -0.859375,0 -1.34375,-0.65625 -1.34375,-1.515625 0,-0.1875 0.015625,-0.375 0.0625,-0.578125 l 0.71875,-2.890625 C 2.875,-6.625 3.796875,-8.15625 5.109375,-8.15625 c 0.40625,0 0.75,0.15625 0.9375,0.46875 C 6.15625,-7.5 6.1875,-7.296875 6.1875,-7.078125 Z M 4.71875,-4.8125 c -0.171875,0.0625 -0.359375,0.09375 -0.515625,0.09375 -0.265625,0 -0.640625,0 -0.625,-0.046875 C 3.609375,-4.875 4,-4.875 4.296875,-4.875 c 0.15625,0 0.296875,0.015625 0.421875,0.0625 z m 0,0"
             id="id-b13c7c49-c417-4393-ae95-0320b7aa5aba" />
        </symbol>
        <symbol
           overflow="visible"
           id="id-cf3ffe25-2bce-4c7d-a283-6dad30da18f2">
          <path
             style="stroke:none"
             d="m 10.53125,-8.03125 c 0,-0.125 -0.125,-0.125 -0.171875,-0.125 L 8.828125,-8.125 7.296875,-8.15625 c -0.09375,0 -0.234375,0 -0.234375,0.234375 0,0.125 0.109375,0.125 0.34375,0.125 0,0 0.25,0 0.453125,0.03125 0.203125,0.015625 0.3125,0.03125 0.3125,0.1875 C 8.171875,-7.53125 8.15625,-7.5 8.125,-7.34375 L 7.40625,-4.4375 H 3.765625 L 4.46875,-7.25 c 0.109375,-0.421875 0.140625,-0.546875 1,-0.546875 0.3125,0 0.40625,0 0.40625,-0.234375 0,-0.125 -0.125,-0.125 -0.15625,-0.125 L 4.1875,-8.125 2.640625,-8.15625 c -0.09375,0 -0.21875,0 -0.21875,0.234375 0,0.125 0.09375,0.125 0.328125,0.125 0,0 0.25,0 0.453125,0.03125 0.21875,0.015625 0.328125,0.03125 0.328125,0.1875 0,0.046875 -0.015625,0.078125 -0.046875,0.234375 L 1.875,-0.9375 C 1.75,-0.46875 1.734375,-0.375 0.78125,-0.375 c -0.203125,0 -0.3125,0 -0.3125,0.25 C 0.46875,0 0.640625,0 0.640625,0 L 2.15625,-0.03125 H 2.921875 C 3.171875,-0.03125 3.4375,0 3.6875,0 3.796875,0 3.9375,0 3.9375,-0.234375 3.9375,-0.375 3.828125,-0.375 3.59375,-0.375 c -0.4375,0 -0.765625,0 -0.765625,-0.203125 0,-0.078125 0.015625,-0.140625 0.03125,-0.203125 l 0.8125,-3.28125 H 7.3125 L 6.484375,-0.765625 C 6.375,-0.375 6.140625,-0.375 5.40625,-0.375 c -0.1875,0 -0.296875,0 -0.296875,0.25 C 5.109375,0 5.28125,0 5.28125,0 L 6.796875,-0.03125 H 7.5625 C 7.828125,-0.03125 8.09375,0 8.34375,0 8.4375,0 8.578125,0 8.578125,-0.234375 8.578125,-0.375 8.46875,-0.375 8.25,-0.375 c -0.4375,0 -0.78125,0 -0.78125,-0.203125 C 7.46875,-0.65625 7.5,-0.71875 7.5,-0.78125 L 9.125,-7.25 c 0.109375,-0.421875 0.125,-0.546875 1,-0.546875 0.3125,0 0.40625,0 0.40625,-0.234375 z m 0,0"
             id="id-87424dc2-da59-469b-8c5b-b018c6b1ce8e" />
        </symbol>
        <symbol
           overflow="visible"
           id="id-c3b65910-6ff4-4d24-9f5f-c7bfcb14d6ea">
          <path
             style="stroke:none"
             d="m 10.140625,-1.703125 c 0,-0.125 -0.109375,-0.125 -0.140625,-0.125 -0.125,0 -0.125,0.03125 -0.1875,0.21875 C 9.640625,-0.984375 9.25,-0.125 8.59375,-0.125 8.390625,-0.125 8.3125,-0.25 8.3125,-0.53125 8.3125,-0.828125 8.421875,-1.109375 8.515625,-1.375 8.75,-2 9.25,-3.328125 9.25,-4 c 0,-0.78125 -0.46875,-1.28125 -1.375,-1.28125 -0.890625,0 -1.5,0.53125 -1.953125,1.15625 0,-0.15625 -0.046875,-0.5625 -0.375,-0.84375 -0.296875,-0.25 -0.6875,-0.3125 -0.984375,-0.3125 -1.078125,0 -1.65625,0.765625 -1.859375,1.03125 -0.0625,-0.671875 -0.5625,-1.03125 -1.09375,-1.03125 -0.5625,0 -0.78125,0.46875 -0.890625,0.671875 -0.21875,0.421875 -0.375,1.125 -0.375,1.171875 0,0.109375 0.140625,0.109375 0.140625,0.109375 0.125,0 0.140625,0 0.203125,-0.265625 0.203125,-0.859375 0.453125,-1.421875 0.875,-1.421875 0.1875,0 0.375,0.09375 0.375,0.546875 0,0.25 -0.03125,0.375 -0.1875,1 L 1.046875,-0.703125 C 1.015625,-0.53125 0.9375,-0.25 0.9375,-0.1875 c 0,0.21875 0.171875,0.3125 0.359375,0.3125 0.140625,0 0.359375,-0.09375 0.4375,-0.328125 C 1.75,-0.234375 1.890625,-0.78125 1.953125,-1.09375 l 0.265625,-1.0625 c 0.078125,-0.265625 0.140625,-0.53125 0.203125,-0.8125 l 0.15625,-0.59375 c 0.1875,-0.375 0.8125,-1.453125 1.953125,-1.453125 0.53125,0 0.640625,0.4375 0.640625,0.828125 0,0.296875 -0.078125,0.640625 -0.171875,1 l -0.34375,1.375 C 4.546875,-1.359375 4.53125,-1.296875 4.421875,-0.890625 4.375,-0.65625 4.265625,-0.25 4.265625,-0.1875 c 0,0.21875 0.171875,0.3125 0.34375,0.3125 0.375,0 0.453125,-0.296875 0.546875,-0.671875 L 5.875,-3.4375 c 0.03125,-0.140625 0.65625,-1.578125 1.96875,-1.578125 0.515625,0 0.640625,0.40625 0.640625,0.828125 0,0.6875 -0.5,2.046875 -0.734375,2.6875 -0.109375,0.28125 -0.15625,0.40625 -0.15625,0.65625 0,0.5625 0.421875,0.96875 0.984375,0.96875 1.109375,0 1.5625,-1.734375 1.5625,-1.828125 z m 0,0"
             id="id-604c34d4-5083-4274-ba87-d464212b5d4c" />
        </symbol>
        <symbol
           overflow="visible"
           id="id-b151df22-a01f-46ab-a1ea-b5afdbcb5a13">
          <path
             style="stroke:none"
             d="M 5.015625,0 V -0.375 H 4.625 c -1.078125,0 -1.109375,-0.125 -1.109375,-0.5625 v -6.71875 c 0,-0.28125 0,-0.296875 -0.28125,-0.296875 -0.734375,0.75 -1.78125,0.75 -2.171875,0.75 v 0.375 c 0.234375,0 0.953125,0 1.5625,-0.3125 V -0.9375 c 0,0.421875 -0.03125,0.5625 -1.109375,0.5625 h -0.375 V 0 c 0.40625,-0.03125 1.453125,-0.03125 1.9375,-0.03125 0.46875,0 1.515625,0 1.9375,0.03125 z m 0,0"
             id="id-2124ee7a-2b26-4f18-b008-834b7dabb54b" />
        </symbol>
        <symbol
           overflow="visible"
           id="id-8de8e544-355c-4a25-82ba-d46ef6c1a464">
          <path
             style="stroke:none"
             d="M 5.359375,-2.078125 H 5.0625 c -0.046875,0.359375 -0.140625,0.890625 -0.25,1.0625 -0.09375,0.09375 -0.875,0.09375 -1.140625,0.09375 H 1.515625 L 2.78125,-2.15625 c 1.875,-1.640625 2.578125,-2.296875 2.578125,-3.484375 0,-1.359375 -1.0625,-2.3125 -2.53125,-2.3125 -1.34375,0 -2.234375,1.09375 -2.234375,2.15625 0,0.671875 0.59375,0.671875 0.640625,0.671875 0.203125,0 0.625,-0.140625 0.625,-0.640625 0,-0.3125 -0.21875,-0.625 -0.640625,-0.625 -0.09375,0 -0.125,0 -0.15625,0.015625 0.28125,-0.765625 0.921875,-1.21875 1.609375,-1.21875 1.09375,0 1.609375,0.96875 1.609375,1.953125 0,0.953125 -0.59375,1.90625 -1.25,2.640625 L 0.734375,-0.4375 C 0.59375,-0.3125 0.59375,-0.28125 0.59375,0 h 4.4375 z m 0,0"
             id="id-5e2e4184-a8a9-4411-9ab1-d5507bb148c4" />
        </symbol>
        <symbol
           overflow="visible"
           id="id-d36cbdfa-ae01-4953-a978-8f95f86514d3">
          <path
             style="stroke:none"
             d="m 10.53125,-8.03125 c 0,0 0,-0.125 -0.15625,-0.125 -0.390625,0 -0.8125,0.03125 -1.203125,0.03125 -0.40625,0 -0.828125,-0.03125 -1.21875,-0.03125 -0.078125,0 -0.21875,0 -0.21875,0.234375 0,0.125 0.125,0.125 0.21875,0.125 0.671875,0.015625 0.8125,0.265625 0.8125,0.53125 0,0.03125 -0.03125,0.21875 -0.046875,0.25 L 7.390625,-1.703125 4.75,-7.9375 C 4.65625,-8.15625 4.640625,-8.15625 4.359375,-8.15625 h -1.59375 c -0.25,0 -0.34375,0 -0.34375,0.234375 0,0.125 0.09375,0.125 0.328125,0.125 0.0625,0 0.8125,0 0.8125,0.109375 L 1.953125,-1.265625 C 1.84375,-0.78125 1.640625,-0.40625 0.671875,-0.375 0.59375,-0.375 0.46875,-0.359375 0.46875,-0.125 0.46875,-0.046875 0.53125,0 0.625,0 1,0 1.421875,-0.03125 1.8125,-0.03125 2.21875,-0.03125 2.65625,0 3.046875,0 c 0.0625,0 0.21875,0 0.21875,-0.234375 0,-0.125 -0.109375,-0.140625 -0.234375,-0.140625 -0.703125,-0.015625 -0.796875,-0.28125 -0.796875,-0.515625 0,-0.09375 0.015625,-0.15625 0.046875,-0.28125 l 1.578125,-6.3125 c 0.046875,0.078125 0.046875,0.09375 0.109375,0.21875 l 2.96875,7.03125 C 7.03125,-0.03125 7.0625,0 7.171875,0 c 0.125,0 0.125,-0.03125 0.1875,-0.25 L 9.03125,-6.90625 c 0.125,-0.484375 0.34375,-0.84375 1.296875,-0.890625 0.0625,0 0.203125,-0.015625 0.203125,-0.234375 z m 0,0"
             id="id-8c9f40c4-8d76-4d78-9828-99cbb8f50cfd" />
        </symbol>
        <symbol
           overflow="visible"
           id="id-42e6b16e-1021-4f4c-a34c-77a5825d1dd8">
          <path
             style="stroke:none"
             d="m 9.390625,-0.09375 c 0,0 0,-0.03125 -0.0625,-0.140625 L 5.28125,-8.34375 C 5.203125,-8.5 5.171875,-8.5625 4.96875,-8.5625 4.765625,-8.5625 4.75,-8.5 4.65625,-8.34375 L 0.625,-0.234375 C 0.5625,-0.125 0.5625,-0.09375 0.5625,-0.09375 0.5625,0 0.640625,0 0.828125,0 H 9.125 C 9.3125,0 9.390625,0 9.390625,-0.09375 Z M 7.8125,-0.90625 H 1.359375 L 4.59375,-7.359375 Z m 0,0"
             id="id-30a17f00-25b6-465f-8240-a2f9af4db6f8" />
        </symbol>
        <symbol
           overflow="visible"
           id="id-fcd918dd-c80e-4284-8a69-2cc02d51f3c9">
          <path
             style="stroke:none"
             d="m 8.625,-2.984375 c 0,-0.140625 -0.109375,-0.25 -0.234375,-0.25 H 0.90625 c -0.125,0 -0.234375,0.109375 -0.234375,0.25 0,0.125 0.109375,0.234375 0.234375,0.234375 h 7.484375 c 0.125,0 0.234375,-0.109375 0.234375,-0.234375 z m 0,0"
             id="id-b070751c-2c91-4b8d-862f-30206f2bfcb5" />
        </symbol>
        <symbol
           overflow="visible"
           id="id-9d3d0909-68f1-4f9d-9dff-36a45053fb83">
          <path
             style="stroke:none"
             d=""
             id="id-f088247b-fe32-4d23-bc95-f395966a3ced" />
        </symbol>
        <symbol
           overflow="visible"
           id="id-e1146e16-dc7d-4823-b957-fec5aae32628">
          <path
             style="stroke:none"
             d="m 4.109375,-2.546875 c 0,-0.875 -0.09375,-1.5 -0.46875,-2.0625 -0.25,-0.359375 -0.734375,-0.6875 -1.375,-0.6875 -1.84375,0 -1.84375,2.1875 -1.84375,2.75 0,0.578125 0,2.703125 1.84375,2.703125 1.84375,0 1.84375,-2.125 1.84375,-2.703125 z m -0.71875,-0.09375 c 0,0.578125 0,1.171875 -0.109375,1.671875 -0.15625,0.734375 -0.703125,0.90625 -1.015625,0.90625 -0.375,0 -0.859375,-0.21875 -1.015625,-0.875 -0.109375,-0.46875 -0.109375,-1.125 -0.109375,-1.703125 0,-0.59375 0,-1.1875 0.125,-1.625 0.15625,-0.640625 0.671875,-0.796875 1,-0.796875 0.421875,0 0.84375,0.25 0.984375,0.71875 0.125,0.4375 0.140625,1 0.140625,1.703125 z m 0,0"
             id="id-d04f7164-d966-4721-8f17-a4014daafb1b" />
        </symbol>
        <symbol
           overflow="visible"
           id="id-775fa578-7afa-4c04-a858-2fd30f0ebc80">
          <path
             style="stroke:none"
             d="m 5.484375,-5.328125 c 0,-0.078125 -0.0625,-0.109375 -0.109375,-0.109375 -0.203125,0 -0.671875,0.03125 -0.859375,0.03125 l -0.625,-0.015625 c -0.1875,0 -0.421875,-0.015625 -0.625,-0.015625 -0.046875,0 -0.171875,0 -0.171875,0.15625 0,0.125 0.0625,0.125 0.3125,0.125 0.171875,0 0.21875,0 0.40625,0.015625 0.234375,0.03125 0.265625,0.046875 0.265625,0.140625 0,0.0625 0,0.078125 -0.03125,0.1875 L 3.125,-1.15625 C 2.96875,-0.5625 2.46875,-0.0625 1.9375,-0.0625 c -0.109375,0 -0.609375,-0.03125 -0.796875,-0.421875 0.46875,0 0.578125,-0.375 0.578125,-0.515625 0,-0.21875 -0.203125,-0.34375 -0.375,-0.34375 -0.21875,0 -0.53125,0.1875 -0.53125,0.625 0,0.515625 0.484375,0.875 1.15625,0.875 0.78125,0 1.671875,-0.5 1.859375,-1.296875 L 4.75,-4.828125 c 0.078125,-0.28125 0.09375,-0.328125 0.53125,-0.328125 0.09375,0 0.203125,0 0.203125,-0.171875 z m 0,0"
             id="id-215cf54c-5498-404c-901c-3346687e04c7" />
        </symbol>
        <symbol
           overflow="visible"
           id="id-f84bca22-a91d-4323-9b76-c66d2f30ece9">
          <path
             style="stroke:none"
             d="M 4.03125,-1.453125 H 3.75 C 3.734375,-1.28125 3.65625,-0.8125 3.546875,-0.71875 3.484375,-0.671875 2.875,-0.671875 2.75,-0.671875 H 1.296875 c 0.828125,-0.75 1.109375,-0.96875 1.59375,-1.34375 0.578125,-0.46875 1.140625,-0.96875 1.140625,-1.71875 0,-0.96875 -0.859375,-1.5625 -1.875,-1.5625 -0.984375,0 -1.65625,0.703125 -1.65625,1.4375 0,0.40625 0.34375,0.4375 0.421875,0.4375 0.1875,0 0.421875,-0.125 0.421875,-0.421875 0,-0.140625 -0.046875,-0.421875 -0.46875,-0.421875 C 1.125,-4.828125 1.671875,-5 2.046875,-5 2.84375,-5 3.25,-4.375 3.25,-3.734375 3.25,-3.046875 2.75,-2.5 2.5,-2.203125 L 0.578125,-0.3125 C 0.5,-0.234375 0.5,-0.21875 0.5,0 h 3.28125 z m 0,0"
             id="id-e20a22a7-6d64-4aee-bee6-900679bce713" />
        </symbol>
        <symbol
           overflow="visible"
           id="id-898d211f-e492-486e-8759-c0fe9f8ea086">
          <path
             style="stroke:none"
             d="M 3.765625,0 V -0.28125 H 3.46875 c -0.796875,0 -0.796875,-0.109375 -0.796875,-0.375 V -5.0625 c 0,-0.21875 -0.015625,-0.234375 -0.234375,-0.234375 -0.515625,0.5 -1.25,0.515625 -1.5625,0.515625 V -4.5 c 0.1875,0 0.703125,0 1.15625,-0.21875 v 4.0625 c 0,0.265625 0,0.375 -0.796875,0.375 h -0.3125 V 0 L 2.34375,-0.03125 Z m 0,0"
             id="id-73859a76-3e78-42a5-b030-c4711932b535" />
        </symbol>
      </g>
    </defs>
  </defs>
  <sodipodi:namedview
     inkscape:snap-global="false"
     id="base"
     pagecolor="#ffffff"
     bordercolor="#666666"
     borderopacity="1.0"
     inkscape:pageopacity="0.0"
     inkscape:pageshadow="2"
     inkscape:zoom="1.4"
     inkscape:cx="539.28594"
     inkscape:cy="200.21282"
     inkscape:document-units="mm"
     inkscape:current-layer="id-889f6786-d00a-4df3-85c4-1c36e5c3ef0d"
     inkscape:document-rotation="0"
     showgrid="true"
     inkscape:window-width="1680"
     inkscape:window-height="1005"
     inkscape:window-x="0"
     inkscape:window-y="23"
     inkscape:window-maximized="0">
    <inkscape:grid
       type="xygrid"
       id="grid833"
       spacingx="5"
       spacingy="5" />
  </sodipodi:namedview>
  <metadata
     id="metadata5">
    <rdf:RDF>
      <cc:Work
         rdf:about="">
        <dc:format>image/svg+xml</dc:format>
        <dc:type
           rdf:resource="http://purl.org/dc/dcmitype/StillImage" />
        <dc:title />
      </cc:Work>
    </rdf:RDF>
  </metadata>
  <g
     inkscape:label="Слой 1"
     inkscape:groupmode="layer"
     id="layer1">
    <path
       style="fill:none;stroke:#000000;stroke-width:0.25;stroke-linejoin:round;stroke-miterlimit:4;stroke-dasharray:none;marker-start:url(#Arrow1Mstart);marker-end:url(#Arrow1Mend)"
       d="m 115,19.999999 v 54.999998 m 0,0 60,1e-6"
       id="path835"
       sodipodi:nodetypes="cccc" />
    <path
       style="fill:none;stroke:#000000;stroke-width:0.25;stroke-linejoin:round;stroke-miterlimit:4;stroke-dasharray:none"
       d="m 165,29.999999 -50,19.999998 50,20.000001"
       id="path1235"
       sodipodi:nodetypes="ccc" />
  </g>
  <g
     inkscape:label="Слой 2"
     id="layer2"
     inkscape:groupmode="layer">
    <g
       id="id-889f6786-d00a-4df3-85c4-1c36e5c3ef0d"
       transform="matrix(0.35277801,0,0,0.35277801,-17.016885,14.498373)">
      <g
         transform="translate(111.19456,-129.12012)"
         id="g1519">
        <g
           id="id-12b7ec8f-29e9-4867-895b-10da86389625"
           style="fill:#000000;fill-opacity:1">
          <g
             transform="translate(270.48,144.201)"
             id="g906">
            <path
               id="id-88466d59-3104-45ba-98c6-e6bb62ada2e8"
               d="M 9.125,-7.8125 C 9.15625,-8.125 9.09375,-8.125 8.796875,-8.125 h -6.03125 c -0.25,0 -0.359375,0 -0.359375,0.234375 0,0.140625 0.109375,0.140625 0.328125,0.140625 0.4375,0 0.78125,0 0.78125,0.203125 0,0.046875 0,0.078125 -0.0625,0.296875 L 1.875,-0.9375 C 1.75,-0.46875 1.734375,-0.375 0.78125,-0.375 c -0.203125,0 -0.328125,0 -0.328125,0.234375 C 0.453125,0 0.5625,0 0.78125,0 H 7 C 7.265625,0 7.28125,-0.015625 7.359375,-0.203125 L 8.46875,-2.78125 c 0.015625,-0.0625 0.046875,-0.171875 0.046875,-0.171875 0,0 0,-0.125 -0.140625,-0.125 -0.109375,0 -0.125,0.0625 -0.15625,0.140625 C 7.453125,-1.171875 7,-0.375 4.953125,-0.375 H 3.21875 c -0.171875,0 -0.1875,0 -0.265625,0 -0.125,-0.015625 -0.15625,-0.03125 -0.15625,-0.125 0,-0.03125 0,-0.0625 0.0625,-0.28125 l 0.8125,-3.265625 h 1.1875 c 1.015625,0 1.015625,0.25 1.015625,0.5625 0,0.078125 0,0.21875 -0.09375,0.578125 C 5.765625,-2.84375 5.75,-2.8125 5.75,-2.765625 c 0,0.046875 0.046875,0.125 0.15625,0.125 0.09375,0 0.125,-0.0625 0.171875,-0.234375 l 0.6875,-2.796875 C 6.765625,-5.75 6.703125,-5.8125 6.625,-5.8125 c -0.109375,0 -0.140625,0.078125 -0.171875,0.21875 -0.25,0.90625 -0.46875,1.1875 -1.5625,1.1875 h -1.125 l 0.71875,-2.890625 C 4.59375,-7.703125 4.609375,-7.75 5.125,-7.75 h 1.6875 c 1.453125,0 1.8125,0.34375 1.8125,1.3125 0,0.296875 0,0.3125 -0.046875,0.640625 0,0.078125 0,0.15625 0,0.21875 0,0.0625 0.03125,0.140625 0.140625,0.140625 0.125,0 0.140625,-0.078125 0.15625,-0.296875 z m 0,0"
               style="stroke:none" />
          </g>
        </g>
        <g
           id="id-676f2056-a24c-40c6-a1fe-abf3ff4624ef"
           style="fill:#000000;fill-opacity:1">
          <g
             transform="translate(283.26,144.201)"
             id="g910">
            <path
               id="id-83b9b99e-f05a-4d44-8fcd-4499bd970791"
               d="m 8.625,-4.140625 c 0,-0.140625 -0.109375,-0.25 -0.234375,-0.25 H 0.90625 c -0.125,0 -0.234375,0.109375 -0.234375,0.25 0,0.125 0.109375,0.234375 0.234375,0.234375 h 7.484375 c 0.125,0 0.234375,-0.109375 0.234375,-0.234375 z m 0,2.3125 c 0,-0.125 -0.109375,-0.234375 -0.234375,-0.234375 H 0.90625 c -0.125,0 -0.234375,0.109375 -0.234375,0.234375 0,0.125 0.109375,0.234375 0.234375,0.234375 h 7.484375 c 0.125,0 0.234375,-0.109375 0.234375,-0.234375 z m 0,0"
               style="stroke:none" />
          </g>
        </g>
        <g
           id="id-3e4a80d6-039b-4716-8b25-db0f5ea6e7e0"
           style="fill:#000000;fill-opacity:1">
          <g
             transform="translate(295.885,144.201)"
             id="g914">
            <path
               id="id-655e8c3c-b2d0-49cb-975c-276c81681f3f"
               d="m 5.671875,-4.71875 c 0,-0.203125 -0.15625,-0.328125 -0.359375,-0.328125 -0.109375,0 -0.4375,0.09375 -0.484375,0.515625 -0.21875,-0.4375 -0.625,-0.75 -1.109375,-0.75 -1.359375,0 -2.84375,1.671875 -2.84375,3.390625 C 0.875,-0.703125 1.609375,0 2.46875,0 3.171875,0 3.734375,-0.5625 3.84375,-0.6875 H 3.859375 L 3.46875,0.890625 C 3.421875,1 3.015625,2.1875 1.75,2.1875 c -0.234375,0 -0.625,-0.015625 -0.96875,-0.125 0.359375,-0.109375 0.5,-0.40625 0.5,-0.609375 C 1.28125,1.25 1.140625,1.03125 0.828125,1.03125 c -0.265625,0 -0.65625,0.21875 -0.65625,0.6875 0,0.5 0.453125,0.734375 1.59375,0.734375 1.5,0 2.359375,-0.9375 2.53125,-1.65625 L 5.625,-4.5 C 5.640625,-4.578125 5.671875,-4.640625 5.671875,-4.71875 Z M 4.6875,-4 c 0,0.0625 -0.03125,0.140625 -0.03125,0.1875 L 4.078125,-1.53125 C 4,-1.21875 3.734375,-0.921875 3.46875,-0.6875 c -0.25,0.203125 -0.625,0.421875 -0.96875,0.421875 -0.59375,0 -0.78125,-0.625 -0.78125,-1.09375 0,-0.578125 0.34375,-1.984375 0.671875,-2.59375 0.328125,-0.59375 0.84375,-1.0625 1.34375,-1.0625 0.78125,0 0.953125,0.96875 0.953125,1.015625 z m 0,0"
               style="stroke:none" />
          </g>
        </g>
        <g
           id="id-6fcac5fa-45a5-4f9b-a16f-2a2b0f88fd0e"
           style="fill:#000000;fill-opacity:1">
          <g
             transform="translate(301.886,144.201)"
             id="g918">
            <path
               id="id-f62e2be0-4cd6-42ca-9d35-0b10ae257db7"
               d="m 6.859375,-6.859375 c 0,-0.375 -0.125,-0.71875 -0.34375,-0.984375 C 6.1875,-8.21875 5.6875,-8.4375 5.125,-8.4375 c -1.4375,0 -2.515625,1.640625 -2.921875,3.265625 l -1.84375,7.34375 c 0,0.09375 0.046875,0.140625 0.125,0.140625 H 0.53125 c 0.0625,0 0.109375,-0.03125 0.125,-0.078125 l 0.8125,-3.28125 C 1.671875,-0.34375 2.21875,0.125 3.03125,0.125 3.71875,0.125 4.453125,-0.09375 5.0625,-0.546875 5.640625,-0.984375 6.078125,-1.59375 6.25,-2.21875 6.3125,-2.484375 6.34375,-2.75 6.34375,-2.984375 c 0,-0.484375 -0.109375,-0.921875 -0.359375,-1.296875 -0.140625,-0.203125 -0.3125,-0.375 -0.515625,-0.515625 0.125,-0.0625 0.25,-0.140625 0.359375,-0.234375 0.484375,-0.359375 0.84375,-0.84375 0.96875,-1.390625 0.046875,-0.15625 0.0625,-0.296875 0.0625,-0.4375 z M 6.1875,-7.078125 c 0,0.1875 -0.015625,0.390625 -0.078125,0.59375 C 6,-6.03125 5.78125,-5.5625 5.421875,-5.21875 5.3125,-5.140625 5.21875,-5.0625 5.109375,-5 c -0.25,-0.09375 -0.515625,-0.15625 -0.8125,-0.15625 -0.421875,0 -0.921875,0 -1.015625,0.328125 0,0.015625 0,0.078125 0,0.078125 0,0.296875 0.484375,0.296875 0.90625,0.296875 0.296875,0 0.59375,-0.046875 0.890625,-0.15625 0.15625,0.109375 0.28125,0.265625 0.359375,0.46875 0.125,0.25 0.171875,0.515625 0.171875,0.8125 0,0.34375 -0.0625,0.703125 -0.140625,1.046875 -0.15625,0.546875 -0.40625,1.109375 -0.875,1.53125 -0.453125,0.390625 -1.015625,0.625 -1.546875,0.625 -0.859375,0 -1.34375,-0.65625 -1.34375,-1.515625 0,-0.1875 0.015625,-0.375 0.0625,-0.578125 l 0.71875,-2.890625 C 2.875,-6.625 3.796875,-8.15625 5.109375,-8.15625 c 0.40625,0 0.75,0.15625 0.9375,0.46875 C 6.15625,-7.5 6.1875,-7.296875 6.1875,-7.078125 Z M 4.71875,-4.8125 c -0.171875,0.0625 -0.359375,0.09375 -0.515625,0.09375 -0.265625,0 -0.640625,0 -0.625,-0.046875 C 3.609375,-4.875 4,-4.875 4.296875,-4.875 c 0.15625,0 0.296875,0.015625 0.421875,0.0625 z m 0,0"
               style="stroke:none" />
          </g>
        </g>
        <g
           id="id-95d41dfa-46be-4e2d-b85b-071a15bea87b"
           style="fill:#000000;fill-opacity:1">
          <g
             transform="translate(309.083,144.201)"
             id="g922">
            <path
               id="id-bf54fef3-deca-4529-bea4-ac9a8158d534"
               d="m 10.53125,-8.03125 c 0,-0.125 -0.125,-0.125 -0.171875,-0.125 L 8.828125,-8.125 7.296875,-8.15625 c -0.09375,0 -0.234375,0 -0.234375,0.234375 0,0.125 0.109375,0.125 0.34375,0.125 0,0 0.25,0 0.453125,0.03125 0.203125,0.015625 0.3125,0.03125 0.3125,0.1875 C 8.171875,-7.53125 8.15625,-7.5 8.125,-7.34375 L 7.40625,-4.4375 H 3.765625 L 4.46875,-7.25 c 0.109375,-0.421875 0.140625,-0.546875 1,-0.546875 0.3125,0 0.40625,0 0.40625,-0.234375 0,-0.125 -0.125,-0.125 -0.15625,-0.125 L 4.1875,-8.125 2.640625,-8.15625 c -0.09375,0 -0.21875,0 -0.21875,0.234375 0,0.125 0.09375,0.125 0.328125,0.125 0,0 0.25,0 0.453125,0.03125 0.21875,0.015625 0.328125,0.03125 0.328125,0.1875 0,0.046875 -0.015625,0.078125 -0.046875,0.234375 L 1.875,-0.9375 C 1.75,-0.46875 1.734375,-0.375 0.78125,-0.375 c -0.203125,0 -0.3125,0 -0.3125,0.25 C 0.46875,0 0.640625,0 0.640625,0 L 2.15625,-0.03125 H 2.921875 C 3.171875,-0.03125 3.4375,0 3.6875,0 3.796875,0 3.9375,0 3.9375,-0.234375 3.9375,-0.375 3.828125,-0.375 3.59375,-0.375 c -0.4375,0 -0.765625,0 -0.765625,-0.203125 0,-0.078125 0.015625,-0.140625 0.03125,-0.203125 l 0.8125,-3.28125 H 7.3125 L 6.484375,-0.765625 C 6.375,-0.375 6.140625,-0.375 5.40625,-0.375 c -0.1875,0 -0.296875,0 -0.296875,0.25 C 5.109375,0 5.28125,0 5.28125,0 L 6.796875,-0.03125 H 7.5625 C 7.828125,-0.03125 8.09375,0 8.34375,0 8.4375,0 8.578125,0 8.578125,-0.234375 8.578125,-0.375 8.46875,-0.375 8.25,-0.375 c -0.4375,0 -0.78125,0 -0.78125,-0.203125 C 7.46875,-0.65625 7.5,-0.71875 7.5,-0.78125 L 9.125,-7.25 c 0.109375,-0.421875 0.125,-0.546875 1,-0.546875 0.3125,0 0.40625,0 0.40625,-0.234375 z m 0,0"
               style="stroke:none" />
          </g>
        </g>
        <g
           id="id-5d2a912f-8b04-4d98-8495-040100979dd8"
           style="fill:#000000;fill-opacity:1">
          <g
             transform="translate(319.025,147.154)"
             id="g926">
            <path
               id="id-a8ad20ee-c4c3-4d15-90aa-3cd0019f08db"
               d="m 4.109375,-2.546875 c 0,-0.875 -0.09375,-1.5 -0.46875,-2.0625 -0.25,-0.359375 -0.734375,-0.6875 -1.375,-0.6875 -1.84375,0 -1.84375,2.1875 -1.84375,2.75 0,0.578125 0,2.703125 1.84375,2.703125 1.84375,0 1.84375,-2.125 1.84375,-2.703125 z m -0.71875,-0.09375 c 0,0.578125 0,1.171875 -0.109375,1.671875 -0.15625,0.734375 -0.703125,0.90625 -1.015625,0.90625 -0.375,0 -0.859375,-0.21875 -1.015625,-0.875 -0.109375,-0.46875 -0.109375,-1.125 -0.109375,-1.703125 0,-0.59375 0,-1.1875 0.125,-1.625 0.15625,-0.640625 0.671875,-0.796875 1,-0.796875 0.421875,0 0.84375,0.25 0.984375,0.71875 0.125,0.4375 0.140625,1 0.140625,1.703125 z m 0,0"
               style="stroke:none" />
          </g>
        </g>
        <g
           id="id-b897e75f-05e8-43de-ad8a-22f10545287b"
           style="fill:#000000;fill-opacity:1">
          <g
             transform="translate(324.058,144.201)"
             id="g930">
            <path
               id="id-a3b06a29-829d-41f2-9488-10087b23de70"
               d="m 10.140625,-1.703125 c 0,-0.125 -0.109375,-0.125 -0.140625,-0.125 -0.125,0 -0.125,0.03125 -0.1875,0.21875 C 9.640625,-0.984375 9.25,-0.125 8.59375,-0.125 8.390625,-0.125 8.3125,-0.25 8.3125,-0.53125 8.3125,-0.828125 8.421875,-1.109375 8.515625,-1.375 8.75,-2 9.25,-3.328125 9.25,-4 c 0,-0.78125 -0.46875,-1.28125 -1.375,-1.28125 -0.890625,0 -1.5,0.53125 -1.953125,1.15625 0,-0.15625 -0.046875,-0.5625 -0.375,-0.84375 -0.296875,-0.25 -0.6875,-0.3125 -0.984375,-0.3125 -1.078125,0 -1.65625,0.765625 -1.859375,1.03125 -0.0625,-0.671875 -0.5625,-1.03125 -1.09375,-1.03125 -0.5625,0 -0.78125,0.46875 -0.890625,0.671875 -0.21875,0.421875 -0.375,1.125 -0.375,1.171875 0,0.109375 0.140625,0.109375 0.140625,0.109375 0.125,0 0.140625,0 0.203125,-0.265625 0.203125,-0.859375 0.453125,-1.421875 0.875,-1.421875 0.1875,0 0.375,0.09375 0.375,0.546875 0,0.25 -0.03125,0.375 -0.1875,1 L 1.046875,-0.703125 C 1.015625,-0.53125 0.9375,-0.25 0.9375,-0.1875 c 0,0.21875 0.171875,0.3125 0.359375,0.3125 0.140625,0 0.359375,-0.09375 0.4375,-0.328125 C 1.75,-0.234375 1.890625,-0.78125 1.953125,-1.09375 l 0.265625,-1.0625 c 0.078125,-0.265625 0.140625,-0.53125 0.203125,-0.8125 l 0.15625,-0.59375 c 0.1875,-0.375 0.8125,-1.453125 1.953125,-1.453125 0.53125,0 0.640625,0.4375 0.640625,0.828125 0,0.296875 -0.078125,0.640625 -0.171875,1 l -0.34375,1.375 C 4.546875,-1.359375 4.53125,-1.296875 4.421875,-0.890625 4.375,-0.65625 4.265625,-0.25 4.265625,-0.1875 c 0,0.21875 0.171875,0.3125 0.34375,0.3125 0.375,0 0.453125,-0.296875 0.546875,-0.671875 L 5.875,-3.4375 c 0.03125,-0.140625 0.65625,-1.578125 1.96875,-1.578125 0.515625,0 0.640625,0.40625 0.640625,0.828125 0,0.6875 -0.5,2.046875 -0.734375,2.6875 -0.109375,0.28125 -0.15625,0.40625 -0.15625,0.65625 0,0.5625 0.421875,0.96875 0.984375,0.96875 1.109375,0 1.5625,-1.734375 1.5625,-1.828125 z m 0,0"
               style="stroke:none" />
          </g>
        </g>
        <g
           id="id-1680c8ab-4ed8-4930-b070-5f3cd6ff7d70"
           style="fill:#000000;fill-opacity:1">
          <g
             transform="translate(334.555,147.154)"
             id="g934">
            <path
               id="id-054f85aa-9069-40d9-9d1b-e1c2854f2b2c"
               d="m 5.484375,-5.328125 c 0,-0.078125 -0.0625,-0.109375 -0.109375,-0.109375 -0.203125,0 -0.671875,0.03125 -0.859375,0.03125 l -0.625,-0.015625 c -0.1875,0 -0.421875,-0.015625 -0.625,-0.015625 -0.046875,0 -0.171875,0 -0.171875,0.15625 0,0.125 0.0625,0.125 0.3125,0.125 0.171875,0 0.21875,0 0.40625,0.015625 0.234375,0.03125 0.265625,0.046875 0.265625,0.140625 0,0.0625 0,0.078125 -0.03125,0.1875 L 3.125,-1.15625 C 2.96875,-0.5625 2.46875,-0.0625 1.9375,-0.0625 c -0.109375,0 -0.609375,-0.03125 -0.796875,-0.421875 0.46875,0 0.578125,-0.375 0.578125,-0.515625 0,-0.21875 -0.203125,-0.34375 -0.375,-0.34375 -0.21875,0 -0.53125,0.1875 -0.53125,0.625 0,0.515625 0.484375,0.875 1.15625,0.875 0.78125,0 1.671875,-0.5 1.859375,-1.296875 L 4.75,-4.828125 c 0.078125,-0.28125 0.09375,-0.328125 0.53125,-0.328125 0.09375,0 0.203125,0 0.203125,-0.171875 z m 0,0"
               style="stroke:none" />
          </g>
        </g>
      </g>
      <g
         transform="translate(243.2311,-122.67849)"
         id="g2370">
        <g
           id="id-c474560a-f9db-4359-becb-d7de3115128e"
           style="fill:#000000;fill-opacity:1">
          <g
             transform="translate(285.113,167.356)"
             id="g938">
            <path
               id="id-b034bc0c-f2d2-4e8a-a411-802087adf1f8"
               d="m 10.140625,-1.703125 c 0,-0.125 -0.109375,-0.125 -0.140625,-0.125 -0.125,0 -0.125,0.03125 -0.1875,0.21875 C 9.640625,-0.984375 9.25,-0.125 8.59375,-0.125 8.390625,-0.125 8.3125,-0.25 8.3125,-0.53125 8.3125,-0.828125 8.421875,-1.109375 8.515625,-1.375 8.75,-2 9.25,-3.328125 9.25,-4 c 0,-0.78125 -0.46875,-1.28125 -1.375,-1.28125 -0.890625,0 -1.5,0.53125 -1.953125,1.15625 0,-0.15625 -0.046875,-0.5625 -0.375,-0.84375 -0.296875,-0.25 -0.6875,-0.3125 -0.984375,-0.3125 -1.078125,0 -1.65625,0.765625 -1.859375,1.03125 -0.0625,-0.671875 -0.5625,-1.03125 -1.09375,-1.03125 -0.5625,0 -0.78125,0.46875 -0.890625,0.671875 -0.21875,0.421875 -0.375,1.125 -0.375,1.171875 0,0.109375 0.140625,0.109375 0.140625,0.109375 0.125,0 0.140625,0 0.203125,-0.265625 0.203125,-0.859375 0.453125,-1.421875 0.875,-1.421875 0.1875,0 0.375,0.09375 0.375,0.546875 0,0.25 -0.03125,0.375 -0.1875,1 L 1.046875,-0.703125 C 1.015625,-0.53125 0.9375,-0.25 0.9375,-0.1875 c 0,0.21875 0.171875,0.3125 0.359375,0.3125 0.140625,0 0.359375,-0.09375 0.4375,-0.328125 C 1.75,-0.234375 1.890625,-0.78125 1.953125,-1.09375 l 0.265625,-1.0625 c 0.078125,-0.265625 0.140625,-0.53125 0.203125,-0.8125 l 0.15625,-0.59375 c 0.1875,-0.375 0.8125,-1.453125 1.953125,-1.453125 0.53125,0 0.640625,0.4375 0.640625,0.828125 0,0.296875 -0.078125,0.640625 -0.171875,1 l -0.34375,1.375 C 4.546875,-1.359375 4.53125,-1.296875 4.421875,-0.890625 4.375,-0.65625 4.265625,-0.25 4.265625,-0.1875 c 0,0.21875 0.171875,0.3125 0.34375,0.3125 0.375,0 0.453125,-0.296875 0.546875,-0.671875 L 5.875,-3.4375 c 0.03125,-0.140625 0.65625,-1.578125 1.96875,-1.578125 0.515625,0 0.640625,0.40625 0.640625,0.828125 0,0.6875 -0.5,2.046875 -0.734375,2.6875 -0.109375,0.28125 -0.15625,0.40625 -0.15625,0.65625 0,0.5625 0.421875,0.96875 0.984375,0.96875 1.109375,0 1.5625,-1.734375 1.5625,-1.828125 z m 0,0"
               style="stroke:none" />
          </g>
        </g>
        <g
           id="id-eac3eaca-a22f-4b8a-aa25-1dbe1d9c6e3b"
           style="fill:#000000;fill-opacity:1">
          <g
             transform="translate(295.61,170.309)"
             id="g942">
            <path
               id="id-f6184668-3b03-4f55-928e-1638133befa7"
               d="m 5.484375,-5.328125 c 0,-0.078125 -0.0625,-0.109375 -0.109375,-0.109375 -0.203125,0 -0.671875,0.03125 -0.859375,0.03125 l -0.625,-0.015625 c -0.1875,0 -0.421875,-0.015625 -0.625,-0.015625 -0.046875,0 -0.171875,0 -0.171875,0.15625 0,0.125 0.0625,0.125 0.3125,0.125 0.171875,0 0.21875,0 0.40625,0.015625 0.234375,0.03125 0.265625,0.046875 0.265625,0.140625 0,0.0625 0,0.078125 -0.03125,0.1875 L 3.125,-1.15625 C 2.96875,-0.5625 2.46875,-0.0625 1.9375,-0.0625 c -0.109375,0 -0.609375,-0.03125 -0.796875,-0.421875 0.46875,0 0.578125,-0.375 0.578125,-0.515625 0,-0.21875 -0.203125,-0.34375 -0.375,-0.34375 -0.21875,0 -0.53125,0.1875 -0.53125,0.625 0,0.515625 0.484375,0.875 1.15625,0.875 0.78125,0 1.671875,-0.5 1.859375,-1.296875 L 4.75,-4.828125 c 0.078125,-0.28125 0.09375,-0.328125 0.53125,-0.328125 0.09375,0 0.203125,0 0.203125,-0.171875 z m 0,0"
               style="stroke:none" />
          </g>
        </g>
        <g
           id="id-450f2e8b-6342-4477-96ef-40524f4575cf"
           style="fill:#000000;fill-opacity:1">
          <g
             transform="translate(305.144,167.356)"
             id="g946">
            <path
               id="id-83b7c050-954d-4264-bb32-c299f9811077"
               d="m 8.625,-4.140625 c 0,-0.140625 -0.109375,-0.25 -0.234375,-0.25 H 0.90625 c -0.125,0 -0.234375,0.109375 -0.234375,0.25 0,0.125 0.109375,0.234375 0.234375,0.234375 h 7.484375 c 0.125,0 0.234375,-0.109375 0.234375,-0.234375 z m 0,2.3125 c 0,-0.125 -0.109375,-0.234375 -0.234375,-0.234375 H 0.90625 c -0.125,0 -0.234375,0.109375 -0.234375,0.234375 0,0.125 0.109375,0.234375 0.234375,0.234375 h 7.484375 c 0.125,0 0.234375,-0.109375 0.234375,-0.234375 z m 0,0"
               style="stroke:none" />
          </g>
        </g>
        <g
           id="id-e165797f-937c-498a-babc-fb4b9d4eea39"
           style="fill:#000000;fill-opacity:1">
          <g
             transform="translate(318.962,159.261)"
             id="g950">
            <path
               id="id-595f0152-2580-4bb3-8b1e-6ea95f29ee65"
               d="M 5.015625,0 V -0.375 H 4.625 c -1.078125,0 -1.109375,-0.125 -1.109375,-0.5625 v -6.71875 c 0,-0.28125 0,-0.296875 -0.28125,-0.296875 -0.734375,0.75 -1.78125,0.75 -2.171875,0.75 v 0.375 c 0.234375,0 0.953125,0 1.5625,-0.3125 V -0.9375 c 0,0.421875 -0.03125,0.5625 -1.109375,0.5625 h -0.375 V 0 c 0.40625,-0.03125 1.453125,-0.03125 1.9375,-0.03125 0.46875,0 1.515625,0 1.9375,0.03125 z m 0,0"
               style="stroke:none" />
          </g>
        </g>
        <path
           id="id-c94c27a6-c61a-4b84-8945-cdbb759045b4"
           transform="matrix(1,0,0,-1,72,72)"
           d="m 246.96094,-92.367188 h 5.97656"
           style="fill:none;stroke:#000000;stroke-width:0.4782;stroke-linecap:butt;stroke-linejoin:miter;stroke-miterlimit:10;stroke-opacity:1" />
        <g
           id="id-93e068ce-84b6-45ae-a808-30dc6a62febc"
           style="fill:#000000;fill-opacity:1">
          <g
             transform="translate(318.962,175.558)"
             id="g955">
            <path
               id="id-8fb42c02-ff37-4ed2-b3e4-414730743e9f"
               d="M 5.359375,-2.078125 H 5.0625 c -0.046875,0.359375 -0.140625,0.890625 -0.25,1.0625 -0.09375,0.09375 -0.875,0.09375 -1.140625,0.09375 H 1.515625 L 2.78125,-2.15625 c 1.875,-1.640625 2.578125,-2.296875 2.578125,-3.484375 0,-1.359375 -1.0625,-2.3125 -2.53125,-2.3125 -1.34375,0 -2.234375,1.09375 -2.234375,2.15625 0,0.671875 0.59375,0.671875 0.640625,0.671875 0.203125,0 0.625,-0.140625 0.625,-0.640625 0,-0.3125 -0.21875,-0.625 -0.640625,-0.625 -0.09375,0 -0.125,0 -0.15625,0.015625 0.28125,-0.765625 0.921875,-1.21875 1.609375,-1.21875 1.09375,0 1.609375,0.96875 1.609375,1.953125 0,0.953125 -0.59375,1.90625 -1.25,2.640625 L 0.734375,-0.4375 C 0.59375,-0.3125 0.59375,-0.28125 0.59375,0 h 4.4375 z m 0,0"
               style="stroke:none" />
          </g>
        </g>
      </g>
      <g
         transform="translate(196.4742,-112.81835)"
         id="g2344">
        <g
           id="id-bcf48a86-fcb4-4ba9-9384-47feb0b79916"
           style="fill:#000000;fill-opacity:1">
          <g
             transform="translate(298.307,187.708)"
             id="g959">
            <path
               id="id-2c1e833f-1753-45b5-9e87-cc9e88e0234c"
               d="m 10.53125,-8.03125 c 0,0 0,-0.125 -0.15625,-0.125 -0.390625,0 -0.8125,0.03125 -1.203125,0.03125 -0.40625,0 -0.828125,-0.03125 -1.21875,-0.03125 -0.078125,0 -0.21875,0 -0.21875,0.234375 0,0.125 0.125,0.125 0.21875,0.125 0.671875,0.015625 0.8125,0.265625 0.8125,0.53125 0,0.03125 -0.03125,0.21875 -0.046875,0.25 L 7.390625,-1.703125 4.75,-7.9375 C 4.65625,-8.15625 4.640625,-8.15625 4.359375,-8.15625 h -1.59375 c -0.25,0 -0.34375,0 -0.34375,0.234375 0,0.125 0.09375,0.125 0.328125,0.125 0.0625,0 0.8125,0 0.8125,0.109375 L 1.953125,-1.265625 C 1.84375,-0.78125 1.640625,-0.40625 0.671875,-0.375 0.59375,-0.375 0.46875,-0.359375 0.46875,-0.125 0.46875,-0.046875 0.53125,0 0.625,0 1,0 1.421875,-0.03125 1.8125,-0.03125 2.21875,-0.03125 2.65625,0 3.046875,0 c 0.0625,0 0.21875,0 0.21875,-0.234375 0,-0.125 -0.109375,-0.140625 -0.234375,-0.140625 -0.703125,-0.015625 -0.796875,-0.28125 -0.796875,-0.515625 0,-0.09375 0.015625,-0.15625 0.046875,-0.28125 l 1.578125,-6.3125 c 0.046875,0.078125 0.046875,0.09375 0.109375,0.21875 l 2.96875,7.03125 C 7.03125,-0.03125 7.0625,0 7.171875,0 c 0.125,0 0.125,-0.03125 0.1875,-0.25 L 9.03125,-6.90625 c 0.125,-0.484375 0.34375,-0.84375 1.296875,-0.890625 0.0625,0 0.203125,-0.015625 0.203125,-0.234375 z m 0,0"
               style="stroke:none" />
          </g>
        </g>
        <g
           id="id-2cf57d0d-bfb1-4632-8e30-6e2001205a47"
           style="fill:#000000;fill-opacity:1">
          <g
             transform="translate(307.907,190.661)"
             id="g963">
            <path
               id="id-5b958a27-8a8c-4d0b-9178-d98a5eedfd8e"
               d="M 4.03125,-1.453125 H 3.75 C 3.734375,-1.28125 3.65625,-0.8125 3.546875,-0.71875 3.484375,-0.671875 2.875,-0.671875 2.75,-0.671875 H 1.296875 c 0.828125,-0.75 1.109375,-0.96875 1.59375,-1.34375 0.578125,-0.46875 1.140625,-0.96875 1.140625,-1.71875 0,-0.96875 -0.859375,-1.5625 -1.875,-1.5625 -0.984375,0 -1.65625,0.703125 -1.65625,1.4375 0,0.40625 0.34375,0.4375 0.421875,0.4375 0.1875,0 0.421875,-0.125 0.421875,-0.421875 0,-0.140625 -0.046875,-0.421875 -0.46875,-0.421875 C 1.125,-4.828125 1.671875,-5 2.046875,-5 2.84375,-5 3.25,-4.375 3.25,-3.734375 3.25,-3.046875 2.75,-2.5 2.5,-2.203125 L 0.578125,-0.3125 C 0.5,-0.234375 0.5,-0.21875 0.5,0 h 3.28125 z m 0,0"
               style="stroke:none" />
          </g>
        </g>
      </g>
      <g
         transform="translate(196.60701,-71.264975)"
         id="g2336">
        <g
           id="id-ad227e2d-3e52-4ecc-b5a3-cb58a773406a"
           style="fill:#000000;fill-opacity:1">
          <g
             transform="translate(298.307,202.847)"
             id="g967">
            <path
               id="id-94395202-bd96-4860-bef8-d32fecc86a57"
               d="m 10.53125,-8.03125 c 0,0 0,-0.125 -0.15625,-0.125 -0.390625,0 -0.8125,0.03125 -1.203125,0.03125 -0.40625,0 -0.828125,-0.03125 -1.21875,-0.03125 -0.078125,0 -0.21875,0 -0.21875,0.234375 0,0.125 0.125,0.125 0.21875,0.125 0.671875,0.015625 0.8125,0.265625 0.8125,0.53125 0,0.03125 -0.03125,0.21875 -0.046875,0.25 L 7.390625,-1.703125 4.75,-7.9375 C 4.65625,-8.15625 4.640625,-8.15625 4.359375,-8.15625 h -1.59375 c -0.25,0 -0.34375,0 -0.34375,0.234375 0,0.125 0.09375,0.125 0.328125,0.125 0.0625,0 0.8125,0 0.8125,0.109375 L 1.953125,-1.265625 C 1.84375,-0.78125 1.640625,-0.40625 0.671875,-0.375 0.59375,-0.375 0.46875,-0.359375 0.46875,-0.125 0.46875,-0.046875 0.53125,0 0.625,0 1,0 1.421875,-0.03125 1.8125,-0.03125 2.21875,-0.03125 2.65625,0 3.046875,0 c 0.0625,0 0.21875,0 0.21875,-0.234375 0,-0.125 -0.109375,-0.140625 -0.234375,-0.140625 -0.703125,-0.015625 -0.796875,-0.28125 -0.796875,-0.515625 0,-0.09375 0.015625,-0.15625 0.046875,-0.28125 l 1.578125,-6.3125 c 0.046875,0.078125 0.046875,0.09375 0.109375,0.21875 l 2.96875,7.03125 C 7.03125,-0.03125 7.0625,0 7.171875,0 c 0.125,0 0.125,-0.03125 0.1875,-0.25 L 9.03125,-6.90625 c 0.125,-0.484375 0.34375,-0.84375 1.296875,-0.890625 0.0625,0 0.203125,-0.015625 0.203125,-0.234375 z m 0,0"
               style="stroke:none" />
          </g>
        </g>
        <g
           id="id-c526115a-2f65-4e36-972d-4b2fa942c643"
           style="fill:#000000;fill-opacity:1">
          <g
             transform="translate(307.907,205.801)"
             id="g971">
            <path
               id="id-355850c8-75d5-4ff2-860d-f2e02b765756"
               d="M 3.765625,0 V -0.28125 H 3.46875 c -0.796875,0 -0.796875,-0.109375 -0.796875,-0.375 V -5.0625 c 0,-0.21875 -0.015625,-0.234375 -0.234375,-0.234375 -0.515625,0.5 -1.25,0.515625 -1.5625,0.515625 V -4.5 c 0.1875,0 0.703125,0 1.15625,-0.21875 v 4.0625 c 0,0.265625 0,0.375 -0.796875,0.375 h -0.3125 V 0 L 2.34375,-0.03125 Z m 0,0"
               style="stroke:none" />
          </g>
        </g>
      </g>
      <g
         transform="translate(200.35701,-114.32164)"
         id="g2322">
        <g
           id="id-a1778464-9745-4809-b7b5-c6931b23aa52"
           style="fill:#000000;fill-opacity:1">
          <g
             transform="translate(273.855,218.381)"
             id="g975">
            <path
               id="id-0a80f433-acf6-485d-beb9-e8747c721de2"
               d="m 9.390625,-0.09375 c 0,0 0,-0.03125 -0.0625,-0.140625 L 5.28125,-8.34375 C 5.203125,-8.5 5.171875,-8.5625 4.96875,-8.5625 4.765625,-8.5625 4.75,-8.5 4.65625,-8.34375 L 0.625,-0.234375 C 0.5625,-0.125 0.5625,-0.09375 0.5625,-0.09375 0.5625,0 0.640625,0 0.828125,0 H 9.125 C 9.3125,0 9.390625,0 9.390625,-0.09375 Z M 7.8125,-0.90625 H 1.359375 L 4.59375,-7.359375 Z m 0,0"
               style="stroke:none" />
          </g>
          <g
             transform="translate(283.814,218.381)"
             id="g978">
            <path
               id="id-280b228c-1b5a-41e9-8f62-359ccc2ea9e2"
               d="M 9.125,-7.8125 C 9.15625,-8.125 9.09375,-8.125 8.796875,-8.125 h -6.03125 c -0.25,0 -0.359375,0 -0.359375,0.234375 0,0.140625 0.109375,0.140625 0.328125,0.140625 0.4375,0 0.78125,0 0.78125,0.203125 0,0.046875 0,0.078125 -0.0625,0.296875 L 1.875,-0.9375 C 1.75,-0.46875 1.734375,-0.375 0.78125,-0.375 c -0.203125,0 -0.328125,0 -0.328125,0.234375 C 0.453125,0 0.5625,0 0.78125,0 H 7 C 7.265625,0 7.28125,-0.015625 7.359375,-0.203125 L 8.46875,-2.78125 c 0.015625,-0.0625 0.046875,-0.171875 0.046875,-0.171875 0,0 0,-0.125 -0.140625,-0.125 -0.109375,0 -0.125,0.0625 -0.15625,0.140625 C 7.453125,-1.171875 7,-0.375 4.953125,-0.375 H 3.21875 c -0.171875,0 -0.1875,0 -0.265625,0 -0.125,-0.015625 -0.15625,-0.03125 -0.15625,-0.125 0,-0.03125 0,-0.0625 0.0625,-0.28125 l 0.8125,-3.265625 h 1.1875 c 1.015625,0 1.015625,0.25 1.015625,0.5625 0,0.078125 0,0.21875 -0.09375,0.578125 C 5.765625,-2.84375 5.75,-2.8125 5.75,-2.765625 c 0,0.046875 0.046875,0.125 0.15625,0.125 0.09375,0 0.125,-0.0625 0.171875,-0.234375 l 0.6875,-2.796875 C 6.765625,-5.75 6.703125,-5.8125 6.625,-5.8125 c -0.109375,0 -0.140625,0.078125 -0.171875,0.21875 -0.25,0.90625 -0.46875,1.1875 -1.5625,1.1875 h -1.125 l 0.71875,-2.890625 C 4.59375,-7.703125 4.609375,-7.75 5.125,-7.75 h 1.6875 c 1.453125,0 1.8125,0.34375 1.8125,1.3125 0,0.296875 0,0.3125 -0.046875,0.640625 0,0.078125 0,0.15625 0,0.21875 0,0.0625 0.03125,0.140625 0.140625,0.140625 0.125,0 0.140625,-0.078125 0.15625,-0.296875 z m 0,0"
               style="stroke:none" />
          </g>
        </g>
        <g
           id="id-eedbc92b-203d-4390-8bb5-39e9cb536d41"
           style="fill:#000000;fill-opacity:1">
          <g
             transform="translate(296.594,218.381)"
             id="g982">
            <path
               id="id-199d44c9-7034-4ae1-bd7b-467eb09a0938"
               d="m 8.625,-4.140625 c 0,-0.140625 -0.109375,-0.25 -0.234375,-0.25 H 0.90625 c -0.125,0 -0.234375,0.109375 -0.234375,0.25 0,0.125 0.109375,0.234375 0.234375,0.234375 h 7.484375 c 0.125,0 0.234375,-0.109375 0.234375,-0.234375 z m 0,2.3125 c 0,-0.125 -0.109375,-0.234375 -0.234375,-0.234375 H 0.90625 c -0.125,0 -0.234375,0.109375 -0.234375,0.234375 0,0.125 0.109375,0.234375 0.234375,0.234375 h 7.484375 c 0.125,0 0.234375,-0.109375 0.234375,-0.234375 z m 0,0"
               style="stroke:none" />
          </g>
        </g>
        <g
           id="id-49816f86-095e-48bf-8e19-78a8586f3dbd"
           style="fill:#000000;fill-opacity:1">
          <g
             transform="translate(309.218,218.381)"
             id="g986">
            <path
               id="id-55beb099-f822-4bd2-818f-085ae53ada50"
               d="m 5.671875,-4.71875 c 0,-0.203125 -0.15625,-0.328125 -0.359375,-0.328125 -0.109375,0 -0.4375,0.09375 -0.484375,0.515625 -0.21875,-0.4375 -0.625,-0.75 -1.109375,-0.75 -1.359375,0 -2.84375,1.671875 -2.84375,3.390625 C 0.875,-0.703125 1.609375,0 2.46875,0 3.171875,0 3.734375,-0.5625 3.84375,-0.6875 H 3.859375 L 3.46875,0.890625 C 3.421875,1 3.015625,2.1875 1.75,2.1875 c -0.234375,0 -0.625,-0.015625 -0.96875,-0.125 0.359375,-0.109375 0.5,-0.40625 0.5,-0.609375 C 1.28125,1.25 1.140625,1.03125 0.828125,1.03125 c -0.265625,0 -0.65625,0.21875 -0.65625,0.6875 0,0.5 0.453125,0.734375 1.59375,0.734375 1.5,0 2.359375,-0.9375 2.53125,-1.65625 L 5.625,-4.5 C 5.640625,-4.578125 5.671875,-4.640625 5.671875,-4.71875 Z M 4.6875,-4 c 0,0.0625 -0.03125,0.140625 -0.03125,0.1875 L 4.078125,-1.53125 C 4,-1.21875 3.734375,-0.921875 3.46875,-0.6875 c -0.25,0.203125 -0.625,0.421875 -0.96875,0.421875 -0.59375,0 -0.78125,-0.625 -0.78125,-1.09375 0,-0.578125 0.34375,-1.984375 0.671875,-2.59375 0.328125,-0.59375 0.84375,-1.0625 1.34375,-1.0625 0.78125,0 0.953125,0.96875 0.953125,1.015625 z m 0,0"
               style="stroke:none" />
          </g>
        </g>
        <g
           id="id-4258ad8e-c985-4b4a-a3b7-1ce654f229a6"
           style="fill:#000000;fill-opacity:1">
          <g
             transform="translate(315.22,218.381)"
             id="g990">
            <path
               id="id-5a5eae8e-271a-46e2-9527-c1e79237aab9"
               d="m 6.859375,-6.859375 c 0,-0.375 -0.125,-0.71875 -0.34375,-0.984375 C 6.1875,-8.21875 5.6875,-8.4375 5.125,-8.4375 c -1.4375,0 -2.515625,1.640625 -2.921875,3.265625 l -1.84375,7.34375 c 0,0.09375 0.046875,0.140625 0.125,0.140625 H 0.53125 c 0.0625,0 0.109375,-0.03125 0.125,-0.078125 l 0.8125,-3.28125 C 1.671875,-0.34375 2.21875,0.125 3.03125,0.125 3.71875,0.125 4.453125,-0.09375 5.0625,-0.546875 5.640625,-0.984375 6.078125,-1.59375 6.25,-2.21875 6.3125,-2.484375 6.34375,-2.75 6.34375,-2.984375 c 0,-0.484375 -0.109375,-0.921875 -0.359375,-1.296875 -0.140625,-0.203125 -0.3125,-0.375 -0.515625,-0.515625 0.125,-0.0625 0.25,-0.140625 0.359375,-0.234375 0.484375,-0.359375 0.84375,-0.84375 0.96875,-1.390625 0.046875,-0.15625 0.0625,-0.296875 0.0625,-0.4375 z M 6.1875,-7.078125 c 0,0.1875 -0.015625,0.390625 -0.078125,0.59375 C 6,-6.03125 5.78125,-5.5625 5.421875,-5.21875 5.3125,-5.140625 5.21875,-5.0625 5.109375,-5 c -0.25,-0.09375 -0.515625,-0.15625 -0.8125,-0.15625 -0.421875,0 -0.921875,0 -1.015625,0.328125 0,0.015625 0,0.078125 0,0.078125 0,0.296875 0.484375,0.296875 0.90625,0.296875 0.296875,0 0.59375,-0.046875 0.890625,-0.15625 0.15625,0.109375 0.28125,0.265625 0.359375,0.46875 0.125,0.25 0.171875,0.515625 0.171875,0.8125 0,0.34375 -0.0625,0.703125 -0.140625,1.046875 -0.15625,0.546875 -0.40625,1.109375 -0.875,1.53125 -0.453125,0.390625 -1.015625,0.625 -1.546875,0.625 -0.859375,0 -1.34375,-0.65625 -1.34375,-1.515625 0,-0.1875 0.015625,-0.375 0.0625,-0.578125 l 0.71875,-2.890625 C 2.875,-6.625 3.796875,-8.15625 5.109375,-8.15625 c 0.40625,0 0.75,0.15625 0.9375,0.46875 C 6.15625,-7.5 6.1875,-7.296875 6.1875,-7.078125 Z M 4.71875,-4.8125 c -0.171875,0.0625 -0.359375,0.09375 -0.515625,0.09375 -0.265625,0 -0.640625,0 -0.625,-0.046875 C 3.609375,-4.875 4,-4.875 4.296875,-4.875 c 0.15625,0 0.296875,0.015625 0.421875,0.0625 z m 0,0"
               style="stroke:none" />
          </g>
        </g>
        <g
           id="id-035bbcc9-b6a4-41d5-bfe4-4d062742cd85"
           style="fill:#000000;fill-opacity:1">
          <g
             transform="translate(322.417,218.381)"
             id="g994">
            <path
               id="id-8a1ee12a-ae55-4251-bd7c-0faa1ed44515"
               d="m 10.53125,-8.03125 c 0,-0.125 -0.125,-0.125 -0.171875,-0.125 L 8.828125,-8.125 7.296875,-8.15625 c -0.09375,0 -0.234375,0 -0.234375,0.234375 0,0.125 0.109375,0.125 0.34375,0.125 0,0 0.25,0 0.453125,0.03125 0.203125,0.015625 0.3125,0.03125 0.3125,0.1875 C 8.171875,-7.53125 8.15625,-7.5 8.125,-7.34375 L 7.40625,-4.4375 H 3.765625 L 4.46875,-7.25 c 0.109375,-0.421875 0.140625,-0.546875 1,-0.546875 0.3125,0 0.40625,0 0.40625,-0.234375 0,-0.125 -0.125,-0.125 -0.15625,-0.125 L 4.1875,-8.125 2.640625,-8.15625 c -0.09375,0 -0.21875,0 -0.21875,0.234375 0,0.125 0.09375,0.125 0.328125,0.125 0,0 0.25,0 0.453125,0.03125 0.21875,0.015625 0.328125,0.03125 0.328125,0.1875 0,0.046875 -0.015625,0.078125 -0.046875,0.234375 L 1.875,-0.9375 C 1.75,-0.46875 1.734375,-0.375 0.78125,-0.375 c -0.203125,0 -0.3125,0 -0.3125,0.25 C 0.46875,0 0.640625,0 0.640625,0 L 2.15625,-0.03125 H 2.921875 C 3.171875,-0.03125 3.4375,0 3.6875,0 3.796875,0 3.9375,0 3.9375,-0.234375 3.9375,-0.375 3.828125,-0.375 3.59375,-0.375 c -0.4375,0 -0.765625,0 -0.765625,-0.203125 0,-0.078125 0.015625,-0.140625 0.03125,-0.203125 l 0.8125,-3.28125 H 7.3125 L 6.484375,-0.765625 C 6.375,-0.375 6.140625,-0.375 5.40625,-0.375 c -0.1875,0 -0.296875,0 -0.296875,0.25 C 5.109375,0 5.28125,0 5.28125,0 L 6.796875,-0.03125 H 7.5625 C 7.828125,-0.03125 8.09375,0 8.34375,0 8.4375,0 8.578125,0 8.578125,-0.234375 8.578125,-0.375 8.46875,-0.375 8.25,-0.375 c -0.4375,0 -0.78125,0 -0.78125,-0.203125 C 7.46875,-0.65625 7.5,-0.71875 7.5,-0.78125 L 9.125,-7.25 c 0.109375,-0.421875 0.125,-0.546875 1,-0.546875 0.3125,0 0.40625,0 0.40625,-0.234375 z m 0,0"
               style="stroke:none" />
          </g>
        </g>
        <g
           id="id-bffcfd35-4237-4f0a-88c2-8d3ad15548c2"
           style="fill:#000000;fill-opacity:1">
          <g
             transform="translate(332.359,221.334)"
             id="g998">
            <path
               id="id-4adf0ab7-5037-440d-96ea-4cbdbd8661dd"
               d="m 4.109375,-2.546875 c 0,-0.875 -0.09375,-1.5 -0.46875,-2.0625 -0.25,-0.359375 -0.734375,-0.6875 -1.375,-0.6875 -1.84375,0 -1.84375,2.1875 -1.84375,2.75 0,0.578125 0,2.703125 1.84375,2.703125 1.84375,0 1.84375,-2.125 1.84375,-2.703125 z m -0.71875,-0.09375 c 0,0.578125 0,1.171875 -0.109375,1.671875 -0.15625,0.734375 -0.703125,0.90625 -1.015625,0.90625 -0.375,0 -0.859375,-0.21875 -1.015625,-0.875 -0.109375,-0.46875 -0.109375,-1.125 -0.109375,-1.703125 0,-0.59375 0,-1.1875 0.125,-1.625 0.15625,-0.640625 0.671875,-0.796875 1,-0.796875 0.421875,0 0.84375,0.25 0.984375,0.71875 0.125,0.4375 0.140625,1 0.140625,1.703125 z m 0,0"
               style="stroke:none" />
          </g>
        </g>
      </g>
      <g
         transform="translate(250.71412,-104.46422)"
         id="g2391">
        <g
           id="id-7ac7c970-1986-4286-a7c5-ac8e14cec619"
           style="fill:#000000;fill-opacity:1">
          <g
             transform="translate(272.979,256.675)"
             id="g1010">
            <path
               id="id-9080f417-801d-4436-89b8-51560e2c0220"
               d="m 10.140625,-1.703125 c 0,-0.125 -0.109375,-0.125 -0.140625,-0.125 -0.125,0 -0.125,0.03125 -0.1875,0.21875 C 9.640625,-0.984375 9.25,-0.125 8.59375,-0.125 8.390625,-0.125 8.3125,-0.25 8.3125,-0.53125 8.3125,-0.828125 8.421875,-1.109375 8.515625,-1.375 8.75,-2 9.25,-3.328125 9.25,-4 c 0,-0.78125 -0.46875,-1.28125 -1.375,-1.28125 -0.890625,0 -1.5,0.53125 -1.953125,1.15625 0,-0.15625 -0.046875,-0.5625 -0.375,-0.84375 -0.296875,-0.25 -0.6875,-0.3125 -0.984375,-0.3125 -1.078125,0 -1.65625,0.765625 -1.859375,1.03125 -0.0625,-0.671875 -0.5625,-1.03125 -1.09375,-1.03125 -0.5625,0 -0.78125,0.46875 -0.890625,0.671875 -0.21875,0.421875 -0.375,1.125 -0.375,1.171875 0,0.109375 0.140625,0.109375 0.140625,0.109375 0.125,0 0.140625,0 0.203125,-0.265625 0.203125,-0.859375 0.453125,-1.421875 0.875,-1.421875 0.1875,0 0.375,0.09375 0.375,0.546875 0,0.25 -0.03125,0.375 -0.1875,1 L 1.046875,-0.703125 C 1.015625,-0.53125 0.9375,-0.25 0.9375,-0.1875 c 0,0.21875 0.171875,0.3125 0.359375,0.3125 0.140625,0 0.359375,-0.09375 0.4375,-0.328125 C 1.75,-0.234375 1.890625,-0.78125 1.953125,-1.09375 l 0.265625,-1.0625 c 0.078125,-0.265625 0.140625,-0.53125 0.203125,-0.8125 l 0.15625,-0.59375 c 0.1875,-0.375 0.8125,-1.453125 1.953125,-1.453125 0.53125,0 0.640625,0.4375 0.640625,0.828125 0,0.296875 -0.078125,0.640625 -0.171875,1 l -0.34375,1.375 C 4.546875,-1.359375 4.53125,-1.296875 4.421875,-0.890625 4.375,-0.65625 4.265625,-0.25 4.265625,-0.1875 c 0,0.21875 0.171875,0.3125 0.34375,0.3125 0.375,0 0.453125,-0.296875 0.546875,-0.671875 L 5.875,-3.4375 c 0.03125,-0.140625 0.65625,-1.578125 1.96875,-1.578125 0.515625,0 0.640625,0.40625 0.640625,0.828125 0,0.6875 -0.5,2.046875 -0.734375,2.6875 -0.109375,0.28125 -0.15625,0.40625 -0.15625,0.65625 0,0.5625 0.421875,0.96875 0.984375,0.96875 1.109375,0 1.5625,-1.734375 1.5625,-1.828125 z m 0,0"
               style="stroke:none" />
          </g>
        </g>
        <g
           id="id-46a703fb-0d29-472e-b952-f82ba17b5355"
           style="fill:#000000;fill-opacity:1">
          <g
             transform="translate(283.475,259.628)"
             id="g1014">
            <path
               id="id-be851d01-4929-4ebe-af0a-ee9eaa1f2b4d"
               d="m 5.484375,-5.328125 c 0,-0.078125 -0.0625,-0.109375 -0.109375,-0.109375 -0.203125,0 -0.671875,0.03125 -0.859375,0.03125 l -0.625,-0.015625 c -0.1875,0 -0.421875,-0.015625 -0.625,-0.015625 -0.046875,0 -0.171875,0 -0.171875,0.15625 0,0.125 0.0625,0.125 0.3125,0.125 0.171875,0 0.21875,0 0.40625,0.015625 0.234375,0.03125 0.265625,0.046875 0.265625,0.140625 0,0.0625 0,0.078125 -0.03125,0.1875 L 3.125,-1.15625 C 2.96875,-0.5625 2.46875,-0.0625 1.9375,-0.0625 c -0.109375,0 -0.609375,-0.03125 -0.796875,-0.421875 0.46875,0 0.578125,-0.375 0.578125,-0.515625 0,-0.21875 -0.203125,-0.34375 -0.375,-0.34375 -0.21875,0 -0.53125,0.1875 -0.53125,0.625 0,0.515625 0.484375,0.875 1.15625,0.875 0.78125,0 1.671875,-0.5 1.859375,-1.296875 L 4.75,-4.828125 c 0.078125,-0.28125 0.09375,-0.328125 0.53125,-0.328125 0.09375,0 0.203125,0 0.203125,-0.171875 z m 0,0"
               style="stroke:none" />
          </g>
        </g>
        <g
           id="id-20efe008-0543-46e5-9f59-9d95c251a4de"
           style="fill:#000000;fill-opacity:1">
          <g
             transform="translate(293.009,256.675)"
             id="g1018">
            <path
               id="id-a80e02ad-1133-494e-9be9-9dbde0a0751b"
               d="m 8.625,-4.140625 c 0,-0.140625 -0.109375,-0.25 -0.234375,-0.25 H 0.90625 c -0.125,0 -0.234375,0.109375 -0.234375,0.25 0,0.125 0.109375,0.234375 0.234375,0.234375 h 7.484375 c 0.125,0 0.234375,-0.109375 0.234375,-0.234375 z m 0,2.3125 c 0,-0.125 -0.109375,-0.234375 -0.234375,-0.234375 H 0.90625 c -0.125,0 -0.234375,0.109375 -0.234375,0.234375 0,0.125 0.109375,0.234375 0.234375,0.234375 h 7.484375 c 0.125,0 0.234375,-0.109375 0.234375,-0.234375 z m 0,0"
               style="stroke:none" />
          </g>
        </g>
        <g
           id="id-8d5c28bf-c934-43e5-b851-fc89c72f1e04"
           style="fill:#000000;fill-opacity:1">
          <g
             transform="translate(305.622,256.675)"
             id="g1022">
            <path
               id="id-9f5e2e85-8606-4de2-b9dd-8adde015c6c7"
               d="m 8.625,-2.984375 c 0,-0.140625 -0.109375,-0.25 -0.234375,-0.25 H 0.90625 c -0.125,0 -0.234375,0.109375 -0.234375,0.25 0,0.125 0.109375,0.234375 0.234375,0.234375 h 7.484375 c 0.125,0 0.234375,-0.109375 0.234375,-0.234375 z m 0,0"
               style="stroke:none" />
          </g>
        </g>
        <g
           id="id-7a774bf8-1d8e-4641-9099-e1c9e6c02898"
           style="fill:#000000;fill-opacity:1">
          <g
             transform="translate(316.128,248.58)"
             id="g1026">
            <path
               id="id-ce3042a6-619e-4c4a-b98a-acc455d7135e"
               d="M 5.015625,0 V -0.375 H 4.625 c -1.078125,0 -1.109375,-0.125 -1.109375,-0.5625 v -6.71875 c 0,-0.28125 0,-0.296875 -0.28125,-0.296875 -0.734375,0.75 -1.78125,0.75 -2.171875,0.75 v 0.375 c 0.234375,0 0.953125,0 1.5625,-0.3125 V -0.9375 c 0,0.421875 -0.03125,0.5625 -1.109375,0.5625 h -0.375 V 0 c 0.40625,-0.03125 1.453125,-0.03125 1.9375,-0.03125 0.46875,0 1.515625,0 1.9375,0.03125 z m 0,0"
               style="stroke:none" />
          </g>
        </g>
        <path
           id="id-b30142c2-6834-43f5-a3fc-13fd06c4c3a1"
           transform="matrix(1,0,0,-1,72,72)"
           d="m 244.12891,-181.6875 h 5.97656"
           style="fill:none;stroke:#000000;stroke-width:0.4782;stroke-linecap:butt;stroke-linejoin:miter;stroke-miterlimit:10;stroke-opacity:1" />
        <g
           id="id-37344800-66ca-4c98-80b7-f7a3289ab330"
           style="fill:#000000;fill-opacity:1">
          <g
             transform="translate(316.128,264.877)"
             id="g1031">
            <path
               id="id-a1ce7cc8-315e-4fd0-ac7e-ac959e2243b4"
               d="M 5.359375,-2.078125 H 5.0625 c -0.046875,0.359375 -0.140625,0.890625 -0.25,1.0625 -0.09375,0.09375 -0.875,0.09375 -1.140625,0.09375 H 1.515625 L 2.78125,-2.15625 c 1.875,-1.640625 2.578125,-2.296875 2.578125,-3.484375 0,-1.359375 -1.0625,-2.3125 -2.53125,-2.3125 -1.34375,0 -2.234375,1.09375 -2.234375,2.15625 0,0.671875 0.59375,0.671875 0.640625,0.671875 0.203125,0 0.625,-0.140625 0.625,-0.640625 0,-0.3125 -0.21875,-0.625 -0.640625,-0.625 -0.09375,0 -0.125,0 -0.15625,0.015625 0.28125,-0.765625 0.921875,-1.21875 1.609375,-1.21875 1.09375,0 1.609375,0.96875 1.609375,1.953125 0,0.953125 -0.59375,1.90625 -1.25,2.640625 L 0.734375,-0.4375 C 0.59375,-0.3125 0.59375,-0.28125 0.59375,0 h 4.4375 z m 0,0"
               style="stroke:none" />
          </g>
        </g>
      </g>
      <g
         transform="translate(223.39271,-74.99995)"
         id="g2352">
        <g
           id="id-16611b43-c15a-4154-acc8-ce0634e10bb4"
           style="fill:#000000;fill-opacity:1">
          <g
             transform="translate(323.301,256.675)"
             id="g1035">
            <path
               id="id-c0c7da20-5af4-4e24-8920-ee28356398b2"
               d="m 10.53125,-8.03125 c 0,-0.125 -0.125,-0.125 -0.171875,-0.125 L 8.828125,-8.125 7.296875,-8.15625 c -0.09375,0 -0.234375,0 -0.234375,0.234375 0,0.125 0.109375,0.125 0.34375,0.125 0,0 0.25,0 0.453125,0.03125 0.203125,0.015625 0.3125,0.03125 0.3125,0.1875 C 8.171875,-7.53125 8.15625,-7.5 8.125,-7.34375 L 7.40625,-4.4375 H 3.765625 L 4.46875,-7.25 c 0.109375,-0.421875 0.140625,-0.546875 1,-0.546875 0.3125,0 0.40625,0 0.40625,-0.234375 0,-0.125 -0.125,-0.125 -0.15625,-0.125 L 4.1875,-8.125 2.640625,-8.15625 c -0.09375,0 -0.21875,0 -0.21875,0.234375 0,0.125 0.09375,0.125 0.328125,0.125 0,0 0.25,0 0.453125,0.03125 0.21875,0.015625 0.328125,0.03125 0.328125,0.1875 0,0.046875 -0.015625,0.078125 -0.046875,0.234375 L 1.875,-0.9375 C 1.75,-0.46875 1.734375,-0.375 0.78125,-0.375 c -0.203125,0 -0.3125,0 -0.3125,0.25 C 0.46875,0 0.640625,0 0.640625,0 L 2.15625,-0.03125 H 2.921875 C 3.171875,-0.03125 3.4375,0 3.6875,0 3.796875,0 3.9375,0 3.9375,-0.234375 3.9375,-0.375 3.828125,-0.375 3.59375,-0.375 c -0.4375,0 -0.765625,0 -0.765625,-0.203125 0,-0.078125 0.015625,-0.140625 0.03125,-0.203125 l 0.8125,-3.28125 H 7.3125 L 6.484375,-0.765625 C 6.375,-0.375 6.140625,-0.375 5.40625,-0.375 c -0.1875,0 -0.296875,0 -0.296875,0.25 C 5.109375,0 5.28125,0 5.28125,0 L 6.796875,-0.03125 H 7.5625 C 7.828125,-0.03125 8.09375,0 8.34375,0 8.4375,0 8.578125,0 8.578125,-0.234375 8.578125,-0.375 8.46875,-0.375 8.25,-0.375 c -0.4375,0 -0.78125,0 -0.78125,-0.203125 C 7.46875,-0.65625 7.5,-0.71875 7.5,-0.78125 L 9.125,-7.25 c 0.109375,-0.421875 0.125,-0.546875 1,-0.546875 0.3125,0 0.40625,0 0.40625,-0.234375 z m 0,0"
               style="stroke:none" />
          </g>
        </g>
        <g
           id="id-3f19bb52-9e29-4d3c-b29f-4c9e11ceed05"
           style="fill:#000000;fill-opacity:1">
          <g
             transform="translate(333.236,259.628)"
             id="g1039">
            <path
               id="id-00d1a349-9563-43dd-92c3-24be54d1acc6"
               d="m 4.109375,-2.546875 c 0,-0.875 -0.09375,-1.5 -0.46875,-2.0625 -0.25,-0.359375 -0.734375,-0.6875 -1.375,-0.6875 -1.84375,0 -1.84375,2.1875 -1.84375,2.75 0,0.578125 0,2.703125 1.84375,2.703125 1.84375,0 1.84375,-2.125 1.84375,-2.703125 z m -0.71875,-0.09375 c 0,0.578125 0,1.171875 -0.109375,1.671875 -0.15625,0.734375 -0.703125,0.90625 -1.015625,0.90625 -0.375,0 -0.859375,-0.21875 -1.015625,-0.875 -0.109375,-0.46875 -0.109375,-1.125 -0.109375,-1.703125 0,-0.59375 0,-1.1875 0.125,-1.625 0.15625,-0.640625 0.671875,-0.796875 1,-0.796875 0.421875,0 0.84375,0.25 0.984375,0.71875 0.125,0.4375 0.140625,1 0.140625,1.703125 z m 0,0"
               style="stroke:none" />
          </g>
        </g>
      </g>
      <path
         id="path1521"
         d="M 430.91372,128.9809 H 487.6066"
         style="fill:none;stroke:#000000;stroke-width:0.70866102;stroke-linejoin:round;stroke-miterlimit:4;stroke-dasharray:5.66928813,2.83464406;stroke-dashoffset:0" />
      <path
         id="path1523"
         d="M 430.91372,72.288028 H 487.6066"
         style="fill:none;stroke:#000000;stroke-width:0.70866097;stroke-linejoin:round;stroke-miterlimit:4;stroke-dasharray:4.25196583,4.25196583;stroke-dashoffset:0" />
      <path
         id="path1525"
         d="M 459.26016,128.9809 V 72.288028"
         style="fill:none;stroke:#1750cf;stroke-width:0.70866102;stroke-linejoin:round;stroke-miterlimit:4;stroke-dasharray:none;stroke-dashoffset:0;marker-end:url(#marker1790);stroke-opacity:1" />
      <path
         id="path1822"
         d="M 465.93338,72.288028 V 128.9809"
         style="fill:none;stroke:#1750cf;stroke-width:0.708661;stroke-linejoin:round;stroke-miterlimit:4;stroke-dasharray:none;stroke-dashoffset:0;marker-end:url(#marker1826);stroke-opacity:1" />
      <path
         id="path2405"
         d="m 411.35954,70.681066 h -2.15403 l 4.30806,-10.878404 4.30806,10.878404 h -2.15403 v 21.756806 h -4.30806 z"
         style="fill:#fbf823;fill-opacity:1;stroke:#000000;stroke-width:0.283464;stroke-linecap:butt;stroke-linejoin:miter;stroke-miterlimit:4;stroke-dasharray:none;stroke-opacity:1" />
      <path
         style="fill:#fbf823;fill-opacity:1;stroke:#000000;stroke-width:0.283464;stroke-linecap:butt;stroke-linejoin:miter;stroke-miterlimit:4;stroke-dasharray:none;stroke-opacity:1"
         d="m 415.6676,130.29119 h 2.15403 l -4.30806,10.87841 -4.30806,-10.87841 h 2.15403 v -21.7568 h 4.30806 z"
         id="path2405-5" />
    </g>
  </g>
</svg>
