<?xml version="1.0" encoding="UTF-8" standalone="no"?>
<svg
   xmlns:dc="http://purl.org/dc/elements/1.1/"
   xmlns:cc="http://creativecommons.org/ns#"
   xmlns:rdf="http://www.w3.org/1999/02/22-rdf-syntax-ns#"
   xmlns:svg="http://www.w3.org/2000/svg"
   xmlns="http://www.w3.org/2000/svg"
   xmlns:sodipodi="http://sodipodi.sourceforge.net/DTD/sodipodi-0.dtd"
   xmlns:inkscape="http://www.inkscape.org/namespaces/inkscape"
   sodipodi:docname="draw3.svg"
   inkscape:version="1.1-dev (bc69992, 2020-04-15)"
   id="svg1159"
   version="1.1"
   viewBox="0 0 190.49858 29.046318"
   height="29.046318mm"
   width="190.49858mm">
  <defs
     id="defs1153">
    <marker
       inkscape:stockid="TriangleOutM"
       orient="auto"
       refY="0"
       refX="0"
       id="marker2127"
       style="overflow:visible"
       inkscape:isstock="true">
      <path
         id="path2125"
         d="M 5.77,0 -2.88,5 V -5 Z"
         style="fill:#000000;fill-opacity:1;fill-rule:evenodd;stroke:#000000;stroke-width:1pt;stroke-opacity:1"
         transform="scale(0.4)" />
    </marker>
    <marker
       inkscape:stockid="TriangleOutM"
       orient="auto"
       refY="0"
       refX="0"
       id="marker2117"
       style="overflow:visible"
       inkscape:isstock="true">
      <path
         id="path2115"
         d="M 5.77,0 -2.88,5 V -5 Z"
         style="fill:#000000;fill-opacity:1;fill-rule:evenodd;stroke:#000000;stroke-width:1pt;stroke-opacity:1"
         transform="scale(0.4)" />
    </marker>
    <marker
       inkscape:stockid="Arrow1Mend"
       orient="auto"
       refY="0"
       refX="0"
       id="marker2027"
       style="overflow:visible"
       inkscape:isstock="true">
      <path
         id="path2025"
         d="M 0,0 5,-5 -12.5,0 5,5 Z"
         style="fill:#000000;fill-opacity:1;fill-rule:evenodd;stroke:#000000;stroke-width:1pt;stroke-opacity:1"
         transform="matrix(-0.4,0,0,-0.4,-4,0)" />
    </marker>
    <marker
       inkscape:stockid="Arrow1Mend"
       orient="auto"
       refY="0"
       refX="0"
       id="marker2017"
       style="overflow:visible"
       inkscape:isstock="true">
      <path
         id="path2015"
         d="M 0,0 5,-5 -12.5,0 5,5 Z"
         style="fill:#000000;fill-opacity:1;fill-rule:evenodd;stroke:#000000;stroke-width:1pt;stroke-opacity:1"
         transform="matrix(-0.4,0,0,-0.4,-4,0)" />
    </marker>
    <marker
       inkscape:collect="always"
       inkscape:isstock="true"
       style="overflow:visible"
       id="marker1991"
       refX="0"
       refY="0"
       orient="auto"
       inkscape:stockid="Arrow1Mend">
      <path
         transform="matrix(-0.4,0,0,-0.4,-4,0)"
         style="fill:#000000;fill-opacity:1;fill-rule:evenodd;stroke:#000000;stroke-width:1pt;stroke-opacity:1"
         d="M 0,0 5,-5 -12.5,0 5,5 Z"
         id="path1989" />
    </marker>
    <marker
       inkscape:isstock="true"
       style="overflow:visible"
       id="marker1981"
       refX="0"
       refY="0"
       orient="auto"
       inkscape:stockid="Arrow1Mend">
      <path
         transform="matrix(-0.4,0,0,-0.4,-4,0)"
         style="fill:#000000;fill-opacity:1;fill-rule:evenodd;stroke:#000000;stroke-width:1pt;stroke-opacity:1"
         d="M 0,0 5,-5 -12.5,0 5,5 Z"
         id="path1979" />
    </marker>
    <marker
       inkscape:stockid="DotM"
       orient="auto"
       refY="0"
       refX="0"
       id="marker1794"
       style="overflow:visible"
       inkscape:isstock="true">
      <path
         id="path1792"
         d="m -2.5,-1 c 0,2.76 -2.24,5 -5,5 -2.76,0 -5,-2.24 -5,-5 0,-2.76 2.24,-5 5,-5 2.76,0 5,2.24 5,5 z"
         style="fill:#000000;fill-opacity:1;fill-rule:evenodd;stroke:#000000;stroke-width:1pt;stroke-opacity:1"
         transform="matrix(0.4,0,0,0.4,2.96,0.4)" />
    </marker>
    <marker
       inkscape:stockid="DotM"
       orient="auto"
       refY="0"
       refX="0"
       id="marker1784"
       style="overflow:visible"
       inkscape:isstock="true">
      <path
         id="path1782"
         d="m -2.5,-1 c 0,2.76 -2.24,5 -5,5 -2.76,0 -5,-2.24 -5,-5 0,-2.76 2.24,-5 5,-5 2.76,0 5,2.24 5,5 z"
         style="fill:#000000;fill-opacity:1;fill-rule:evenodd;stroke:#000000;stroke-width:1pt;stroke-opacity:1"
         transform="matrix(0.4,0,0,0.4,2.96,0.4)" />
    </marker>
    <marker
       inkscape:stockid="DotM"
       orient="auto"
       refY="0"
       refX="0"
       id="marker1774"
       style="overflow:visible"
       inkscape:isstock="true">
      <path
         id="path1772"
         d="m -2.5,-1 c 0,2.76 -2.24,5 -5,5 -2.76,0 -5,-2.24 -5,-5 0,-2.76 2.24,-5 5,-5 2.76,0 5,2.24 5,5 z"
         style="fill:#000000;fill-opacity:1;fill-rule:evenodd;stroke:#000000;stroke-width:1pt;stroke-opacity:1"
         transform="matrix(0.4,0,0,0.4,2.96,0.4)" />
    </marker>
    <marker
       inkscape:stockid="DotM"
       orient="auto"
       refY="0"
       refX="0"
       id="marker1764"
       style="overflow:visible"
       inkscape:isstock="true">
      <path
         id="path1762"
         d="m -2.5,-1 c 0,2.76 -2.24,5 -5,5 -2.76,0 -5,-2.24 -5,-5 0,-2.76 2.24,-5 5,-5 2.76,0 5,2.24 5,5 z"
         style="fill:#000000;fill-opacity:1;fill-rule:evenodd;stroke:#000000;stroke-width:1pt;stroke-opacity:1"
         transform="matrix(0.4,0,0,0.4,2.96,0.4)" />
    </marker>
    <marker
       inkscape:stockid="Arrow2Sstart"
       orient="auto"
       refY="0"
       refX="0"
       id="marker1680"
       style="overflow:visible"
       inkscape:isstock="true">
      <path
         id="path1678"
         style="fill:#000000;fill-opacity:1;fill-rule:evenodd;stroke:#000000;stroke-width:0.625;stroke-linejoin:round;stroke-opacity:1"
         d="M 8.7185878,4.0337352 -2.2072895,0.01601326 8.7185884,-4.0017078 c -1.7454984,2.3720609 -1.7354408,5.6174519 -6e-7,8.035443 z"
         transform="matrix(0.3,0,0,0.3,-0.69,0)" />
    </marker>
    <marker
       inkscape:stockid="Arrow2Sstart"
       orient="auto"
       refY="0"
       refX="0"
       id="marker1670"
       style="overflow:visible"
       inkscape:isstock="true">
      <path
         id="path1668"
         style="fill:#000000;fill-opacity:1;fill-rule:evenodd;stroke:#000000;stroke-width:0.625;stroke-linejoin:round;stroke-opacity:1"
         d="M 8.7185878,4.0337352 -2.2072895,0.01601326 8.7185884,-4.0017078 c -1.7454984,2.3720609 -1.7354408,5.6174519 -6e-7,8.035443 z"
         transform="matrix(0.3,0,0,0.3,-0.69,0)" />
    </marker>
    <marker
       inkscape:stockid="Arrow2Sstart"
       orient="auto"
       refY="0"
       refX="0"
       id="marker1660"
       style="overflow:visible"
       inkscape:isstock="true">
      <path
         id="path1658"
         style="fill:#000000;fill-opacity:1;fill-rule:evenodd;stroke:#000000;stroke-width:0.625;stroke-linejoin:round;stroke-opacity:1"
         d="M 8.7185878,4.0337352 -2.2072895,0.01601326 8.7185884,-4.0017078 c -1.7454984,2.3720609 -1.7354408,5.6174519 -6e-7,8.035443 z"
         transform="matrix(0.3,0,0,0.3,-0.69,0)" />
    </marker>
    <marker
       inkscape:stockid="Arrow2Sstart"
       orient="auto"
       refY="0"
       refX="0"
       id="marker1650"
       style="overflow:visible"
       inkscape:isstock="true">
      <path
         id="path1648"
         style="fill:#000000;fill-opacity:1;fill-rule:evenodd;stroke:#000000;stroke-width:0.625;stroke-linejoin:round;stroke-opacity:1"
         d="M 8.7185878,4.0337352 -2.2072895,0.01601326 8.7185884,-4.0017078 c -1.7454984,2.3720609 -1.7354408,5.6174519 -6e-7,8.035443 z"
         transform="matrix(0.3,0,0,0.3,-0.69,0)" />
    </marker>
    <marker
       inkscape:collect="always"
       inkscape:stockid="Arrow1Mend"
       orient="auto"
       refY="0"
       refX="0"
       id="marker1536"
       style="overflow:visible"
       inkscape:isstock="true">
      <path
         id="path1534"
         d="M 0,0 5,-5 -12.5,0 5,5 Z"
         style="fill:#000000;fill-opacity:1;fill-rule:evenodd;stroke:#000000;stroke-width:1pt;stroke-opacity:1"
         transform="matrix(-0.4,0,0,-0.4,-4,0)" />
    </marker>
    <marker
       inkscape:stockid="Arrow1Mend"
       orient="auto"
       refY="0"
       refX="0"
       id="marker1526"
       style="overflow:visible"
       inkscape:isstock="true">
      <path
         id="path1524"
         d="M 0,0 5,-5 -12.5,0 5,5 Z"
         style="fill:#000000;fill-opacity:1;fill-rule:evenodd;stroke:#000000;stroke-width:1pt;stroke-opacity:1"
         transform="matrix(-0.4,0,0,-0.4,-4,0)" />
    </marker>
    <marker
       inkscape:stockid="Arrow1Mend"
       orient="auto"
       refY="0"
       refX="0"
       id="marker1516"
       style="overflow:visible"
       inkscape:isstock="true">
      <path
         id="path1514"
         d="M 0,0 5,-5 -12.5,0 5,5 Z"
         style="fill:#000000;fill-opacity:1;fill-rule:evenodd;stroke:#000000;stroke-width:1pt;stroke-opacity:1"
         transform="matrix(-0.4,0,0,-0.4,-4,0)" />
    </marker>
    <marker
       inkscape:stockid="Arrow1Mend"
       orient="auto"
       refY="0"
       refX="0"
       id="marker1506"
       style="overflow:visible"
       inkscape:isstock="true">
      <path
         id="path1504"
         d="M 0,0 5,-5 -12.5,0 5,5 Z"
         style="fill:#000000;fill-opacity:1;fill-rule:evenodd;stroke:#000000;stroke-width:1pt;stroke-opacity:1"
         transform="matrix(-0.4,0,0,-0.4,-4,0)" />
    </marker>
  </defs>
  <sodipodi:namedview
     inkscape:window-maximized="0"
     inkscape:window-y="26"
     inkscape:window-x="0"
     inkscape:window-height="1024"
     inkscape:window-width="1680"
     inkscape:snap-global="false"
     inkscape:snap-intersection-paths="true"
     inkscape:snap-nodes="true"
     showgrid="true"
     inkscape:current-layer="layer1"
     inkscape:document-units="mm"
     inkscape:cy="123.67606"
     inkscape:cx="357.70294"
     inkscape:zoom="2.0089742"
     inkscape:pageshadow="2"
     inkscape:pageopacity="0.0"
     borderopacity="1.0"
     bordercolor="#666666"
     pagecolor="#ffffff"
     id="base">
    <inkscape:grid
       originy="-7.9178255"
       originx="-10"
       spacingy="5"
       spacingx="5"
       id="grid1224"
       type="xygrid" />
  </sodipodi:namedview>
  <metadata
     id="metadata1156">
    <rdf:RDF>
      <cc:Work
         rdf:about="">
        <dc:format>image/svg+xml</dc:format>
        <dc:type
           rdf:resource="http://purl.org/dc/dcmitype/StillImage" />
        <dc:title></dc:title>
      </cc:Work>
    </rdf:RDF>
  </metadata>
  <g
     transform="translate(-10,-7.9178253)"
     id="layer1"
     inkscape:groupmode="layer"
     inkscape:label="Слой 1">
    <path
       sodipodi:nodetypes="ccc"
       id="path1226"
       d="M 10,25 H 19.84375 50"
       style="fill:none;stroke:#000000;stroke-width:0.253;stroke-miterlimit:4;stroke-dasharray:none;marker-mid:url(#marker1774);marker-end:url(#marker1506)" />
    <path
       sodipodi:nodetypes="csc"
       id="path1228"
       d="m 60,25 c 9.978732,0 19.957464,0 29.936196,0 3.354601,0 6.709203,0 10.063804,0"
       style="fill:none;stroke:#000000;stroke-width:0.253;stroke-miterlimit:4;stroke-dasharray:none;marker-mid:url(#marker1784);marker-end:url(#marker1516)" />
    <path
       sodipodi:nodetypes="ccc"
       id="path1230"
       d="M 110,25 H 124.92113 150"
       style="fill:none;stroke:#000000;stroke-width:0.253;stroke-miterlimit:4;stroke-dasharray:none;marker-mid:url(#marker1794);marker-end:url(#marker1526)" />
    <path
       sodipodi:nodetypes="ccc"
       id="path1232"
       d="M 160,25 H 185.01935 200"
       style="fill:none;stroke:#000000;stroke-width:0.253;stroke-miterlimit:4;stroke-dasharray:none;marker-mid:url(#marker1764);marker-end:url(#marker1536)" />
    <path
       sodipodi:open="true"
       d="m 32.935062,13.212966 a 17.5,17.5 0 0 1 -0.08374,23.665315"
       sodipodi:arc-type="arc"
       sodipodi:end="0.74607126"
       sodipodi:start="5.5441911"
       sodipodi:ry="17.5"
       sodipodi:rx="17.5"
       sodipodi:cy="25"
       sodipodi:cx="20"
       sodipodi:type="arc"
       id="path1928"
       style="fill:none;stroke:#000000;stroke-width:0.253;stroke-miterlimit:4;stroke-dasharray:none" />
    <path
       style="fill:none;stroke:#000000;stroke-width:0.253;stroke-miterlimit:4;stroke-dasharray:none"
       id="path1928-2"
       sodipodi:type="arc"
       sodipodi:cx="90"
       sodipodi:cy="25"
       sodipodi:rx="17.5"
       sodipodi:ry="17.5"
       sodipodi:start="2.4351839"
       sodipodi:end="3.8625644"
       sodipodi:arc-type="arc"
       d="M 76.687787,36.359357 A 17.5,17.5 0 0 1 76.854619,13.447989"
       sodipodi:open="true" />
    <path
       sodipodi:nodetypes="ccc"
       id="path1975"
       d="M 115,30 135.06571,19.967144 145,15"
       style="fill:none;stroke:#000000;stroke-width:0.253;stroke-miterlimit:4;stroke-dasharray:none;marker-mid:url(#marker1981)" />
    <path
       sodipodi:nodetypes="ccc"
       id="path1977"
       d="M 165,15 175.06732,20.033659 195,30"
       style="fill:none;stroke:#000000;stroke-width:0.253;stroke-miterlimit:4;stroke-dasharray:none;marker-mid:url(#marker1991)" />
    <path
       id="path2011"
       d="M 19.915367,24.97736 35.891061,19.575549"
       style="fill:none;stroke:#000000;stroke-width:0.198486;stroke-linecap:butt;stroke-linejoin:miter;stroke-miterlimit:4;stroke-dasharray:none;marker-end:url(#marker2127)" />
    <path
       id="path2013"
       d="M 90.085009,24.982023 74.117703,19.644002"
       style="fill:none;stroke:#000000;stroke-width:0.196878;stroke-linecap:butt;stroke-linejoin:miter;stroke-miterlimit:4;stroke-dasharray:none;marker-end:url(#marker2117)" />
    <path
       sodipodi:open="true"
       d="M 131.27516,21.897999 A 7,7 0 0 1 132,25.00403"
       sodipodi:arc-type="arc"
       sodipodi:end="0.00057566694"
       sodipodi:start="5.8240836"
       sodipodi:ry="7"
       sodipodi:rx="7"
       sodipodi:cy="25"
       sodipodi:cx="125"
       sodipodi:type="arc"
       id="path2165"
       style="fill:none;stroke:#000000;stroke-width:0.253;stroke-linecap:butt;stroke-linejoin:miter;stroke-miterlimit:4;stroke-dasharray:none" />
    <path
       sodipodi:open="true"
       style="fill:none;stroke:#000000;stroke-width:0.253;stroke-linecap:butt;stroke-linejoin:miter;stroke-miterlimit:4;stroke-dasharray:none"
       id="path2165-4"
       sodipodi:type="arc"
       sodipodi:cx="185"
       sodipodi:cy="25"
       sodipodi:rx="7"
       sodipodi:ry="7"
       sodipodi:start="3.1318573"
       sodipodi:end="3.6209566"
       sodipodi:arc-type="arc"
       d="m 178.00033,25.068146 a 7,7 0 0 1 0.78865,-3.29665" />
    <text
       id="text2184"
       y="23.680628"
       x="133.0175"
       style="font-size:3.88056px;line-height:1.25;font-family:sans-serif;text-decoration:none;text-decoration-line:none;text-decoration-color:#000000;fill:#000000;stroke-width:0.264583;stop-color:#000000"
       xml:space="preserve"><tspan
         style="stroke-width:0.264583"
         y="23.680628"
         x="133.0175"
         id="tspan2182"
         sodipodi:role="line">$\phi$</tspan></text>
    <text
       xml:space="preserve"
       style="font-size:3.88056px;line-height:1.25;font-family:sans-serif;text-decoration:none;text-decoration-line:none;text-decoration-color:#000000;fill:#000000;stroke-width:0.264583;stop-color:#000000"
       x="172.39854"
       y="23.680628"
       id="text2184-6"><tspan
         sodipodi:role="line"
         id="tspan2182-0"
         x="172.39854"
         y="23.680628"
         style="stroke-width:0.264583">$\phi$</tspan></text>
    <text
       id="text2208"
       y="10.904037"
       x="27.146894"
       style="font-size:3.88056px;line-height:1.25;font-family:sans-serif;text-decoration:none;text-decoration-line:none;text-decoration-color:#000000;fill:#000000;stroke-width:0.264583;stop-color:#000000"
       xml:space="preserve"><tspan
         style="stroke-width:0.264583"
         y="10.904037"
         x="27.146894"
         id="tspan2206"
         sodipodi:role="line">$R&gt;0$</tspan></text>
    <text
       xml:space="preserve"
       style="font-size:3.88056px;line-height:1.25;font-family:sans-serif;text-decoration:none;text-decoration-line:none;text-decoration-color:#000000;fill:#000000;stroke-width:0.264583;stop-color:#000000"
       x="77.258659"
       y="10.904037"
       id="text2208-0"><tspan
         sodipodi:role="line"
         id="tspan2206-4"
         x="77.258659"
         y="10.904037"
         style="stroke-width:0.264583">$R&lt;0$</tspan></text>
    <text
       id="text2230"
       y="12.78206"
       x="124.98398"
       style="font-size:3.88056px;line-height:1.25;font-family:sans-serif;text-decoration:none;text-decoration-line:none;text-decoration-color:#000000;fill:#000000;stroke-width:0.264583;stop-color:#000000"
       xml:space="preserve"><tspan
         style="stroke-width:0.264583"
         y="12.78206"
         x="124.98398"
         id="tspan2228"
         sodipodi:role="line">$\phi&gt;0$</tspan></text>
    <text
       xml:space="preserve"
       style="font-size:3.88056px;line-height:1.25;font-family:sans-serif;text-decoration:none;text-decoration-line:none;text-decoration-color:#000000;fill:#000000;stroke-width:0.264583;stop-color:#000000"
       x="174.82997"
       y="12.78206"
       id="text2208-7"><tspan
         sodipodi:role="line"
         id="tspan2206-8"
         x="174.82997"
         y="12.78206"
         style="stroke-width:0.264583">$\phi&lt;0$</tspan></text>
  </g>
</svg>
